<svg width="1000" height="1000" viewBox="0 0 1000 1000" xmlns="http://www.w3.org/2000/svg"><defs/><path fill="#a2d183" d="M 0 0 L 1000 0 L 1000 1000 L 0 1000 Z"/><path fill="#aa36a5" transform="matrix(0.1505208422273538 0 0 0.1505208422273538 4.230445125161436 -103.44480809037593)" d="M 1400.2543099705 3514.04485492384 C 1396.7543099705 3513.94485492384 1313.9543099705 3512.24485492384 1250.9543099705 3581.14485492384 C 1210.6543099705 3621.64485492384 1187.0543099705 3675.94485492384 1184.7543099705 3732.64485492384 C 1132.6543099705 3736.54485492384 1081.6543099705 3758.44485492384 1041.8543099705 3798.14485492384 C 1002.7543099705 3837.24485492384 979.3543099705 3889.04485492384 975.9543099705 3944.14485492384 L 974.4543099705 3968.34485492384 L 1422.1543099705 3967.84485492384 L 1422.1543099705 3514.74485492384 L 1400.2543099705 3514.04485492384 Z M 1283.3543099705 3612.84485492384 L 1284.0543099705 3612.04485492384 C 1315.5543099705 3577.34485492384 1353.3543099705 3565.54485492384 1376.7543099705 3561.44485492384 L 1376.7543099705 3814.54485492384 C 1372.0543099705 3808.84485492384 1367.1543099705 3803.34485492384 1361.8543099705 3798.14485492384 C 1324.8543099705 3761.14485492384 1278.1543099705 3739.64485492384 1229.9543099705 3733.64485492384 C 1232.1543099705 3688.44485492384 1251.0543099705 3645.14485492384 1283.3543099705 3612.84485492384 Z M 1287.8543099705 3870.44485492384 C 1262.8543099705 3845.44485492384 1245.3543099705 3814.44485492384 1236.7543099705 3780.64485492384 C 1270.8543099705 3787.34485492384 1303.4543099705 3803.84485492384 1329.8543099705 3830.24485492384 C 1369.1543099705 3872.34485492384 1376.8543099705 3921.34485492384 1376.8543099705 3921.34485492384 C 1343.2543099705 3912.74485492384 1312.5543099705 3895.14485492384 1287.8543099705 3870.44485492384 Z M 1073.8543099705 3830.24485492384 C 1106.0543099705 3798.04485492384 1147.3543099705 3780.64485492384 1189.5543099705 3777.74485492384 C 1198.5543099705 3824.74485492384 1221.4543099705 3868.24485492384 1255.7543099705 3902.54485492384 C 1262.9543099705 3909.74485492384 1270.5543099705 3916.34485492384 1278.4543099705 3922.54485492384 L 1024.2543099705 3922.84485492384 C 1031.3543099705 3887.94485492384 1048.4543099705 3855.74485492384 1073.8543099705 3830.24485492384 Z"/><path fill="#aa36a5" transform="matrix(0.1505208422273538 0 0 0.1505208422273538 4.230445125161436 -103.44480809037593)" d="M 1098.9543099705 3715.94485492384 C 1118.9543099705 3715.94485492384 1137.7543099705 3708.14485492384 1151.9543099705 3694.04485492384 C 1166.1543099705 3679.84485492384 1173.8543099705 3661.04485492384 1173.8543099705 3641.04485492384 C 1173.8543099705 3621.04485492384 1166.0543099705 3602.24485492384 1151.9543099705 3588.04485492384 L 1151.9543099705 3588.04485492384 C 1137.7543099705 3573.84485492384 1118.9543099705 3566.14485492384 1098.9543099705 3566.14485492384 C 1078.9543099705 3566.14485492384 1060.1543099705 3573.94485492384 1045.9543099705 3588.04485492384 C 1031.7543099705 3602.24485492384 1023.9543099705 3621.04485492384 1023.9543099705 3641.04485492384 C 1023.9543099705 3661.04485492384 1031.7543099705 3679.84485492384 1045.8543099705 3694.04485492384 C 1060.0543099705 3708.14485492384 1078.9543099705 3715.94485492384 1098.9543099705 3715.94485492384 Z M 1078.0543099705 3620.14485492384 C 1083.6543099705 3614.54485492384 1091.0543099705 3611.44485492384 1098.9543099705 3611.44485492384 C 1106.8543099705 3611.44485492384 1114.2543099705 3614.54485492384 1119.8543099705 3620.14485492384 L 1119.8543099705 3620.14485492384 C 1125.4543099705 3625.74485492384 1128.5543099705 3633.14485492384 1128.5543099705 3641.04485492384 C 1128.5543099705 3648.94485492384 1125.4543099705 3656.34485492384 1119.8543099705 3661.94485492384 C 1114.2543099705 3667.54485492384 1106.8543099705 3670.64485492384 1098.9543099705 3670.64485492384 C 1091.0543099705 3670.64485492384 1083.6543099705 3667.54485492384 1078.0543099705 3661.94485492384 C 1072.4543099705 3656.34485492384 1069.3543099705 3648.94485492384 1069.3543099705 3641.04485492384 C 1069.3543099705 3633.14485492384 1072.4543099705 3625.74485492384 1078.0543099705 3620.14485492384 Z"/><path fill="#aa36a5" transform="matrix(0.1505208422273538 0 0 0.1505208422273538 4.230445125161436 -103.44480809037593)" d="M 1526.6543099705 4504.04485492384 C 1530.1543099705 4504.14485492384 1612.9543099705 4505.84485492384 1675.9543099705 4436.94485492384 C 1716.2543099705 4396.44485492384 1739.8543099705 4342.14485492384 1742.1543099705 4285.44485492384 C 1794.2543099705 4281.54485492384 1845.2543099705 4259.64485492384 1885.0543099705 4219.94485492384 C 1924.1543099705 4180.84485492384 1947.5543099705 4129.04485492384 1950.9543099705 4073.94485492384 L 1952.4543099705 4049.84485492384 L 1504.7543099705 4050.34485492384 L 1504.7543099705 4503.44485492384 L 1526.6543099705 4504.04485492384 Z M 1643.5543099705 4405.24485492384 L 1642.8543099705 4406.04485492384 C 1611.3543099705 4440.74485492384 1573.5543099705 4452.54485492384 1550.1543099705 4456.64485492384 L 1550.1543099705 4203.54485492384 C 1554.8543099705 4209.24485492384 1559.7543099705 4214.74485492384 1565.0543099705 4219.94485492384 C 1602.0543099705 4256.94485492384 1648.7543099705 4278.44485492384 1696.9543099705 4284.44485492384 C 1694.7543099705 4329.64485492384 1675.8543099705 4372.94485492384 1643.5543099705 4405.24485492384 Z M 1639.0543099705 4147.64485492384 C 1664.0543099705 4172.64485492384 1681.5543099705 4203.64485492384 1690.1543099705 4237.44485492384 C 1656.0543099705 4230.74485492384 1623.4543099705 4214.24485492384 1597.0543099705 4187.84485492384 C 1557.7543099705 4145.74485492384 1550.0543099705 4096.74485492384 1550.0543099705 4096.74485492384 C 1583.6543099705 4105.34485492384 1614.3543099705 4122.94485492384 1639.0543099705 4147.64485492384 Z M 1853.0543099705 4187.84485492384 C 1820.8543099705 4220.04485492384 1779.5543099705 4237.44485492384 1737.3543099705 4240.34485492384 C 1728.3543099705 4193.34485492384 1705.4543099705 4149.84485492384 1671.1543099705 4115.54485492384 C 1663.9543099705 4108.34485492384 1656.3543099705 4101.74485492384 1648.4543099705 4095.54485492384 L 1902.6543099705 4095.24485492384 C 1895.5543099705 4130.14485492384 1878.4543099705 4162.34485492384 1853.0543099705 4187.84485492384 Z"/><path fill="#aa36a5" transform="matrix(0.1505208422273538 0 0 0.1505208422273538 4.230445125161436 -103.44480809037593)" d="M 1827.9543099705 4302.14485492384 C 1807.9543099705 4302.14485492384 1789.1543099705 4309.94485492384 1774.9543099705 4324.04485492384 C 1760.7543099705 4338.14485492384 1753.0543099705 4357.04485492384 1753.0543099705 4377.04485492384 C 1753.0543099705 4397.04485492384 1760.8543099705 4415.84485492384 1774.9543099705 4430.04485492384 L 1774.9543099705 4430.04485492384 C 1789.1543099705 4444.24485492384 1807.9543099705 4451.94485492384 1827.9543099705 4451.94485492384 C 1847.9543099705 4451.94485492384 1866.7543099705 4444.14485492384 1880.9543099705 4430.04485492384 C 1895.1543099705 4415.84485492384 1902.9543099705 4397.04485492384 1902.9543099705 4377.04485492384 C 1902.9543099705 4357.04485492384 1895.1543099705 4338.24485492384 1881.0543099705 4324.04485492384 C 1866.8543099705 4309.94485492384 1847.9543099705 4302.14485492384 1827.9543099705 4302.14485492384 Z M 1848.8543099705 4397.94485492384 C 1843.2543099705 4403.54485492384 1835.8543099705 4406.64485492384 1827.9543099705 4406.64485492384 C 1820.0543099705 4406.64485492384 1812.6543099705 4403.54485492384 1807.0543099705 4397.94485492384 L 1807.0543099705 4397.94485492384 C 1801.4543099705 4392.34485492384 1798.3543099705 4384.94485492384 1798.3543099705 4377.04485492384 C 1798.3543099705 4369.14485492384 1801.4543099705 4361.74485492384 1807.0543099705 4356.14485492384 C 1812.6543099705 4350.54485492384 1820.0543099705 4347.44485492384 1827.9543099705 4347.44485492384 C 1835.8543099705 4347.44485492384 1843.2543099705 4350.54485492384 1848.8543099705 4356.14485492384 C 1854.4543099705 4361.74485492384 1857.5543099705 4369.14485492384 1857.5543099705 4377.04485492384 C 1857.5543099705 4384.94485492384 1854.4543099705 4392.34485492384 1848.8543099705 4397.94485492384 Z"/><path fill="#00acee" transform="matrix(0.1505208422273538 0 0 0.1505208422273538 4.230445125161436 -103.44480809037593)" d="M 1958.4543099705 3945.84485492384 C 1958.5543099705 3942.34485492384 1960.2543099705 3859.54485492384 1891.3543099705 3796.54485492384 C 1850.8543099705 3756.24485492384 1796.5543099705 3732.64485492384 1739.8543099705 3730.34485492384 C 1735.9543099705 3678.24485492384 1714.0543099705 3627.24485492384 1674.3543099705 3587.44485492384 C 1635.2543099705 3548.34485492384 1583.4543099705 3524.94485492384 1528.3543099705 3521.54485492384 L 1504.1543099705 3520.04485492384 L 1504.6543099705 3967.74485492384 L 1957.7543099705 3967.74485492384 L 1958.4543099705 3945.84485492384 Z M 1859.6543099705 3828.94485492384 L 1860.4543099705 3829.64485492384 C 1895.1543099705 3861.14485492384 1906.9543099705 3898.94485492384 1911.0543099705 3922.34485492384 L 1657.9543099705 3922.34485492384 C 1663.6543099705 3917.64485492384 1669.1543099705 3912.74485492384 1674.3543099705 3907.44485492384 C 1711.3543099705 3870.44485492384 1732.8543099705 3823.74485492384 1738.8543099705 3775.54485492384 C 1784.0543099705 3777.74485492384 1827.3543099705 3796.64485492384 1859.6543099705 3828.94485492384 Z M 1602.0543099705 3833.44485492384 C 1627.0543099705 3808.44485492384 1658.0543099705 3790.94485492384 1691.8543099705 3782.34485492384 C 1685.1543099705 3816.44485492384 1668.6543099705 3849.04485492384 1642.2543099705 3875.44485492384 C 1600.1543099705 3914.74485492384 1551.1543099705 3922.44485492384 1551.1543099705 3922.44485492384 C 1559.7543099705 3888.84485492384 1577.3543099705 3858.14485492384 1602.0543099705 3833.44485492384 Z M 1642.2543099705 3619.44485492384 C 1674.4543099705 3651.64485492384 1691.8543099705 3692.94485492384 1694.7543099705 3735.14485492384 C 1647.7543099705 3744.14485492384 1604.2543099705 3767.04485492384 1569.9543099705 3801.34485492384 C 1562.7543099705 3808.54485492384 1556.1543099705 3816.14485492384 1549.9543099705 3824.04485492384 L 1549.6543099705 3569.84485492384 C 1584.5543099705 3576.94485492384 1616.7543099705 3594.04485492384 1642.2543099705 3619.44485492384 Z"/><path fill="#00acee" transform="matrix(0.1505208422273538 0 0 0.1505208422273538 4.230445125161436 -103.44480809037593)" d="M 1756.5543099705 3644.54485492384 C 1756.5543099705 3664.54485492384 1764.3543099705 3683.34485492384 1778.4543099705 3697.54485492384 C 1792.6543099705 3711.74485492384 1811.4543099705 3719.44485492384 1831.4543099705 3719.44485492384 C 1851.4543099705 3719.44485492384 1870.2543099705 3711.64485492384 1884.4543099705 3697.54485492384 L 1884.4543099705 3697.54485492384 C 1898.6543099705 3683.34485492384 1906.3543099705 3664.54485492384 1906.3543099705 3644.54485492384 C 1906.3543099705 3624.54485492384 1898.5543099705 3605.74485492384 1884.4543099705 3591.54485492384 C 1870.2543099705 3577.34485492384 1851.4543099705 3569.54485492384 1831.4543099705 3569.54485492384 C 1811.4543099705 3569.54485492384 1792.6543099705 3577.34485492384 1778.4543099705 3591.44485492384 C 1764.3543099705 3605.64485492384 1756.5543099705 3624.54485492384 1756.5543099705 3644.54485492384 Z M 1852.3543099705 3623.64485492384 C 1857.9543099705 3629.24485492384 1861.0543099705 3636.64485492384 1861.0543099705 3644.54485492384 C 1861.0543099705 3652.44485492384 1857.9543099705 3659.84485492384 1852.3543099705 3665.44485492384 L 1852.3543099705 3665.44485492384 C 1846.7543099705 3671.04485492384 1839.3543099705 3674.14485492384 1831.4543099705 3674.14485492384 C 1823.5543099705 3674.14485492384 1816.1543099705 3671.04485492384 1810.5543099705 3665.44485492384 C 1804.9543099705 3659.84485492384 1801.8543099705 3652.44485492384 1801.8543099705 3644.54485492384 C 1801.8543099705 3636.64485492384 1804.9543099705 3629.24485492384 1810.5543099705 3623.64485492384 C 1816.1543099705 3618.04485492384 1823.5543099705 3614.94485492384 1831.4543099705 3614.94485492384 C 1839.3543099705 3614.94485492384 1846.7543099705 3618.04485492384 1852.3543099705 3623.64485492384 Z"/><path fill="#00acee" transform="matrix(0.1505208422273538 0 0 0.1505208422273538 4.230445125161436 -103.44480809037593)" d="M 968.4543099705 4072.24485492384 C 968.3543099705 4075.74485492384 966.6543099705 4158.54485492384 1035.5543099705 4221.54485492384 C 1076.0543099705 4261.84485492384 1130.3543099705 4285.44485492384 1187.0543099705 4287.74485492384 C 1190.9543099705 4339.84485492384 1212.8543099705 4390.84485492384 1252.5543099705 4430.64485492384 C 1291.6543099705 4469.74485492384 1343.4543099705 4493.14485492384 1398.5543099705 4496.54485492384 L 1422.6543099705 4498.04485492384 L 1422.1543099705 4050.34485492384 L 969.1543099705 4050.34485492384 L 968.4543099705 4072.24485492384 Z M 1067.2543099705 4189.14485492384 L 1066.4543099705 4188.44485492384 C 1031.7543099705 4156.94485492384 1019.9543099705 4119.14485492384 1015.8543099705 4095.74485492384 L 1268.9543099705 4095.74485492384 C 1263.2543099705 4100.44485492384 1257.7543099705 4105.34485492384 1252.5543099705 4110.64485492384 C 1215.5543099705 4147.64485492384 1194.0543099705 4194.34485492384 1188.0543099705 4242.54485492384 C 1142.8543099705 4240.34485492384 1099.5543099705 4221.44485492384 1067.2543099705 4189.14485492384 Z M 1324.8543099705 4184.64485492384 C 1299.8543099705 4209.64485492384 1268.8543099705 4227.14485492384 1235.0543099705 4235.74485492384 C 1241.7543099705 4201.64485492384 1258.2543099705 4169.04485492384 1284.6543099705 4142.64485492384 C 1326.7543099705 4103.34485492384 1375.7543099705 4095.64485492384 1375.7543099705 4095.64485492384 C 1367.1543099705 4129.24485492384 1349.5543099705 4159.94485492384 1324.8543099705 4184.64485492384 Z M 1284.6543099705 4398.64485492384 C 1252.4543099705 4366.44485492384 1235.0543099705 4325.14485492384 1232.1543099705 4282.94485492384 C 1279.1543099705 4273.94485492384 1322.6543099705 4251.04485492384 1356.9543099705 4216.74485492384 C 1364.1543099705 4209.54485492384 1370.7543099705 4201.94485492384 1376.9543099705 4194.04485492384 L 1377.2543099705 4448.24485492384 C 1342.3543099705 4441.14485492384 1310.1543099705 4424.04485492384 1284.6543099705 4398.64485492384 Z"/><path fill="#00acee" transform="matrix(0.1505208422273538 0 0 0.1505208422273538 4.230445125161436 -103.44480809037593)" d="M 1170.3543099705 4373.54485492384 C 1170.3543099705 4353.54485492384 1162.5543099705 4334.74485492384 1148.4543099705 4320.54485492384 C 1134.2543099705 4306.34485492384 1115.4543099705 4298.64485492384 1095.4543099705 4298.64485492384 C 1075.4543099705 4298.64485492384 1056.6543099705 4306.44485492384 1042.4543099705 4320.54485492384 L 1042.4543099705 4320.54485492384 C 1028.2543099705 4334.74485492384 1020.5543099705 4353.54485492384 1020.5543099705 4373.54485492384 C 1020.5543099705 4393.54485492384 1028.3543099705 4412.34485492384 1042.4543099705 4426.54485492384 C 1056.6543099705 4440.74485492384 1075.4543099705 4448.54485492384 1095.4543099705 4448.54485492384 C 1115.4543099705 4448.54485492384 1134.2543099705 4440.74485492384 1148.4543099705 4426.64485492384 C 1162.5543099705 4412.44485492384 1170.3543099705 4393.54485492384 1170.3543099705 4373.54485492384 Z M 1074.5543099705 4394.44485492384 C 1068.9543099705 4388.84485492384 1065.8543099705 4381.44485492384 1065.8543099705 4373.54485492384 C 1065.8543099705 4365.64485492384 1068.9543099705 4358.24485492384 1074.5543099705 4352.64485492384 L 1074.5543099705 4352.64485492384 C 1080.1543099705 4347.04485492384 1087.5543099705 4343.94485492384 1095.4543099705 4343.94485492384 C 1103.3543099705 4343.94485492384 1110.7543099705 4347.04485492384 1116.3543099705 4352.64485492384 C 1121.9543099705 4358.24485492384 1125.0543099705 4365.64485492384 1125.0543099705 4373.54485492384 C 1125.0543099705 4381.44485492384 1121.9543099705 4388.84485492384 1116.3543099705 4394.44485492384 C 1110.7543099705 4400.04485492384 1103.3543099705 4403.14485492384 1095.4543099705 4403.14485492384 C 1087.5543099705 4403.14485492384 1080.1543099705 4400.04485492384 1074.5543099705 4394.44485492384 Z"/><path id="text" fill="#7c1398" transform="matrix(0.791186931098921 0 0 0.791186931098921 156.1368364600693 -44.232834770028354)" d="M 215.74217294963 689.93283779048 L 206.71817294963 699.34083779048 L 206.71817294963 716.33283779048 L 191.26217294963 716.33283779048 L 191.26217294963 649.13283779048 L 206.71817294963 649.13283779048 L 206.71817294963 680.52483779048 L 236.47817294963 649.13283779048 L 253.75817294963 649.13283779048 L 225.91817294963 679.08483779048 L 255.39017294963 716.33283779048 L 237.24617294963 716.33283779048 L 215.74217294963 689.93283779048 Z M 260.28617294963 664.68483779048 L 275.26217294963 664.68483779048 L 275.26217294963 716.33283779048 L 260.28617294963 716.33283779048 L 260.28617294963 664.68483779048 Z M 261.05417294963 655.08483779048 C 259.32617294963 653.48483779048 258.46217294963 651.50083779048 258.46217294963 649.13283779048 C 258.46217294963 646.76483779048 259.32617294963 644.78083779048 261.05417294963 643.18083779048 C 262.78217294963 641.58083779048 265.02217294963 640.78083779048 267.77417294963 640.78083779048 C 270.52617294963 640.78083779048 272.76617294963 641.54883779048 274.49417294963 643.08483779048 C 276.22217294963 644.62083779048 277.08617294963 646.54083779048 277.08617294963 648.84483779048 C 277.08617294963 651.34083779048 276.22217294963 653.40483779048 274.49417294963 655.03683779048 C 272.76617294963 656.66883779048 270.52617294963 657.48483779048 267.77417294963 657.48483779048 C 265.02217294963 657.48483779048 262.78217294963 656.68483779048 261.05417294963 655.08483779048 Z M 332.81417294963 667.22883779048 C 336.75017294963 669.43683779048 339.83817294963 672.54083779048 342.07817294963 676.54083779048 C 344.31817294963 680.54083779048 345.43817294963 685.19683779048 345.43817294963 690.50883779048 C 345.43817294963 695.82083779048 344.31817294963 700.47683779048 342.07817294963 704.47683779048 C 339.83817294963 708.47683779048 336.75017294963 711.58083779048 332.81417294963 713.78883779048 C 328.87817294963 715.99683779048 324.51017294963 717.10083779048 319.71017294963 717.10083779048 C 313.11817294963 717.10083779048 307.93417294963 715.02083779048 304.15817294963 710.86083779048 L 304.15817294963 734.95683779048 L 289.18217294963 734.95683779048 L 289.18217294963 664.68483779048 L 303.48617294963 664.68483779048 L 303.48617294963 670.63683779048 C 307.19817294963 666.15683779048 312.60617294963 663.91683779048 319.71017294963 663.91683779048 C 324.51017294963 663.91683779048 328.87817294963 665.02083779048 332.81417294963 667.22883779048 Z M 326.57417294963 700.92483779048 C 329.03817294963 698.33283779048 330.27017294963 694.86083779048 330.27017294963 690.50883779048 C 330.27017294963 686.15683779048 329.03817294963 682.68483779048 326.57417294963 680.09283779048 C 324.11017294963 677.50083779048 320.95817294963 676.20483779048 317.11817294963 676.20483779048 C 313.27817294963 676.20483779048 310.12617294963 677.50083779048 307.66217294963 680.09283779048 C 305.19817294963 682.68483779048 303.96617294963 686.15683779048 303.96617294963 690.50883779048 C 303.96617294963 694.86083779048 305.19817294963 698.33283779048 307.66217294963 700.92483779048 C 310.12617294963 703.51683779048 313.27817294963 704.81283779048 317.11817294963 704.81283779048 C 320.95817294963 704.81283779048 324.11017294963 703.51683779048 326.57417294963 700.92483779048 Z M 407.45417294963 664.68483779048 L 407.45417294963 716.33283779048 L 393.24617294963 716.33283779048 L 393.24617294963 710.18883779048 C 391.26217294963 712.42883779048 388.89417294963 714.14083779048 386.14217294963 715.32483779048 C 383.39017294963 716.50883779048 380.41417294963 717.10083779048 377.21417294963 717.10083779048 C 370.43017294963 717.10083779048 365.05417294963 715.14883779048 361.08617294963 711.24483779048 C 357.11817294963 707.34083779048 355.13417294963 701.54883779048 355.13417294963 693.86883779048 L 355.13417294963 664.68483779048 L 370.11017294963 664.68483779048 L 370.11017294963 691.66083779048 C 370.11017294963 699.98083779048 373.59817294963 704.14083779048 380.57417294963 704.14083779048 C 384.15817294963 704.14083779048 387.03817294963 702.97283779048 389.21417294963 700.63683779048 C 391.39017294963 698.30083779048 392.47817294963 694.82883779048 392.47817294963 690.22083779048 L 392.47817294963 664.68483779048 L 407.45417294963 664.68483779048 Z M 419.16617294963 649.13283779048 L 431.93417294963 649.13283779048 L 430.87817294963 676.39683779048 L 420.12617294963 676.39683779048 L 419.16617294963 649.13283779048 Z M 448.25417294963 715.51683779048 C 444.15817294963 714.46083779048 440.89417294963 713.13283779048 438.46217294963 711.53283779048 L 443.45417294963 700.78083779048 C 445.75817294963 702.25283779048 448.54217294963 703.45283779048 451.80617294963 704.38083779048 C 455.07017294963 705.30883779048 458.27017294963 705.77283779048 461.40617294963 705.77283779048 C 467.74217294963 705.77283779048 470.91017294963 704.20483779048 470.91017294963 701.06883779048 C 470.91017294963 699.59683779048 470.04617294963 698.54083779048 468.31817294963 697.90083779048 C 466.59017294963 697.26083779048 463.93417294963 696.71683779048 460.35017294963 696.26883779048 C 456.12617294963 695.62883779048 452.63817294963 694.89283779048 449.88617294963 694.06083779048 C 447.13417294963 693.22883779048 444.75017294963 691.75683779048 442.73417294963 689.64483779048 C 440.71817294963 687.53283779048 439.71017294963 684.52483779048 439.71017294963 680.62083779048 C 439.71017294963 677.35683779048 440.65417294963 674.46083779048 442.54217294963 671.93283779048 C 444.43017294963 669.40483779048 447.18217294963 667.43683779048 450.79817294963 666.02883779048 C 454.41417294963 664.62083779048 458.68617294963 663.91683779048 463.61417294963 663.91683779048 C 467.26217294963 663.91683779048 470.89417294963 664.31683779048 474.51017294963 665.11683779048 C 478.12617294963 665.91683779048 481.11817294963 667.02083779048 483.48617294963 668.42883779048 L 478.49417294963 679.08483779048 C 473.95017294963 676.52483779048 468.99017294963 675.24483779048 463.61417294963 675.24483779048 C 460.41417294963 675.24483779048 458.01417294963 675.69283779048 456.41417294963 676.58883779048 C 454.81417294963 677.48483779048 454.01417294963 678.63683779048 454.01417294963 680.04483779048 C 454.01417294963 681.64483779048 454.87817294963 682.76483779048 456.60617294963 683.40483779048 C 458.33417294963 684.04483779048 461.08617294963 684.65283779048 464.86217294963 685.22883779048 C 469.08617294963 685.93283779048 472.54217294963 686.68483779048 475.23017294963 687.48483779048 C 477.91817294963 688.28483779048 480.25417294963 689.74083779048 482.23817294963 691.85283779048 C 484.22217294963 693.96483779048 485.21417294963 696.90883779048 485.21417294963 700.68483779048 C 485.21417294963 703.88483779048 484.25417294963 706.73283779048 482.33417294963 709.22883779048 C 480.41417294963 711.72483779048 477.61417294963 713.66083779048 473.93417294963 715.03683779048 C 470.25417294963 716.41283779048 465.88617294963 717.10083779048 460.83017294963 717.10083779048 C 456.54217294963 717.10083779048 452.35017294963 716.57283779048 448.25417294963 715.51683779048 Z M 565.47017294963 716.33283779048 L 552.51017294963 697.61283779048 L 551.74217294963 697.61283779048 L 538.20617294963 697.61283779048 L 538.20617294963 716.33283779048 L 522.65417294963 716.33283779048 L 522.65417294963 649.13283779048 L 551.74217294963 649.13283779048 C 557.69417294963 649.13283779048 562.86217294963 650.12483779048 567.24617294963 652.10883779048 C 571.63017294963 654.09283779048 575.00617294963 656.90883779048 577.37417294963 660.55683779048 C 579.74217294963 664.20483779048 580.92617294963 668.52483779048 580.92617294963 673.51683779048 C 580.92617294963 678.50883779048 579.72617294963 682.81283779048 577.32617294963 686.42883779048 C 574.92617294963 690.04483779048 571.51817294963 692.81283779048 567.10217294963 694.73283779048 L 582.17417294963 716.33283779048 L 565.47017294963 716.33283779048 Z M 561.53417294963 664.82883779048 C 559.10217294963 662.81283779048 555.55017294963 661.80483779048 550.87817294963 661.80483779048 L 538.20617294963 661.80483779048 L 538.20617294963 685.22883779048 L 550.87817294963 685.22883779048 C 555.55017294963 685.22883779048 559.10217294963 684.20483779048 561.53417294963 682.15683779048 C 563.96617294963 680.10883779048 565.18217294963 677.22883779048 565.18217294963 673.51683779048 C 565.18217294963 669.74083779048 563.96617294963 666.84483779048 561.53417294963 664.82883779048 Z M 642.46217294963 694.73283779048 L 603.39017294963 694.73283779048 C 604.09417294963 697.93283779048 605.75817294963 700.46083779048 608.38217294963 702.31683779048 C 611.00617294963 704.17283779048 614.27017294963 705.10083779048 618.17417294963 705.10083779048 C 620.86217294963 705.10083779048 623.24617294963 704.70083779048 625.32617294963 703.90083779048 C 627.40617294963 703.10083779048 629.34217294963 701.83683779048 631.13417294963 700.10883779048 L 639.10217294963 708.74883779048 C 634.23817294963 714.31683779048 627.13417294963 717.10083779048 617.79017294963 717.10083779048 C 611.96617294963 717.10083779048 606.81417294963 715.96483779048 602.33417294963 713.69283779048 C 597.85417294963 711.42083779048 594.39817294963 708.26883779048 591.96617294963 704.23683779048 C 589.53417294963 700.20483779048 588.31817294963 695.62883779048 588.31817294963 690.50883779048 C 588.31817294963 685.45283779048 589.51817294963 680.89283779048 591.91817294963 676.82883779048 C 594.31817294963 672.76483779048 597.61417294963 669.59683779048 601.80617294963 667.32483779048 C 605.99817294963 665.05283779048 610.68617294963 663.91683779048 615.87017294963 663.91683779048 C 620.92617294963 663.91683779048 625.50217294963 665.00483779048 629.59817294963 667.18083779048 C 633.69417294963 669.35683779048 636.91017294963 672.47683779048 639.24617294963 676.54083779048 C 641.58217294963 680.60483779048 642.75017294963 685.32483779048 642.75017294963 690.70083779048 C 642.75017294963 690.89283779048 642.65417294963 692.23683779048 642.46217294963 694.73283779048 Z M 607.42217294963 678.12483779048 C 605.11817294963 680.04483779048 603.71017294963 682.66883779048 603.19817294963 685.99683779048 L 628.63817294963 685.99683779048 C 628.12617294963 682.73283779048 626.71817294963 680.12483779048 624.41417294963 678.17283779048 C 622.11017294963 676.22083779048 619.29417294963 675.24483779048 615.96617294963 675.24483779048 C 612.57417294963 675.24483779048 609.72617294963 676.20483779048 607.42217294963 678.12483779048 Z M 657.53417294963 715.51683779048 C 653.43817294963 714.46083779048 650.17417294963 713.13283779048 647.74217294963 711.53283779048 L 652.73417294963 700.78083779048 C 655.03817294963 702.25283779048 657.82217294963 703.45283779048 661.08617294963 704.38083779048 C 664.35017294963 705.30883779048 667.55017294963 705.77283779048 670.68617294963 705.77283779048 C 677.02217294963 705.77283779048 680.19017294963 704.20483779048 680.19017294963 701.06883779048 C 680.19017294963 699.59683779048 679.32617294963 698.54083779048 677.59817294963 697.90083779048 C 675.87017294963 697.26083779048 673.21417294963 696.71683779048 669.63017294963 696.26883779048 C 665.40617294963 695.62883779048 661.91817294963 694.89283779048 659.16617294963 694.06083779048 C 656.41417294963 693.22883779048 654.03017294963 691.75683779048 652.01417294963 689.64483779048 C 649.99817294963 687.53283779048 648.99017294963 684.52483779048 648.99017294963 680.62083779048 C 648.99017294963 677.35683779048 649.93417294963 674.46083779048 651.82217294963 671.93283779048 C 653.71017294963 669.40483779048 656.46217294963 667.43683779048 660.07817294963 666.02883779048 C 663.69417294963 664.62083779048 667.96617294963 663.91683779048 672.89417294963 663.91683779048 C 676.54217294963 663.91683779048 680.17417294963 664.31683779048 683.79017294963 665.11683779048 C 687.40617294963 665.91683779048 690.39817294963 667.02083779048 692.76617294963 668.42883779048 L 687.77417294963 679.08483779048 C 683.23017294963 676.52483779048 678.27017294963 675.24483779048 672.89417294963 675.24483779048 C 669.69417294963 675.24483779048 667.29417294963 675.69283779048 665.69417294963 676.58883779048 C 664.09417294963 677.48483779048 663.29417294963 678.63683779048 663.29417294963 680.04483779048 C 663.29417294963 681.64483779048 664.15817294963 682.76483779048 665.88617294963 683.40483779048 C 667.61417294963 684.04483779048 670.36617294963 684.65283779048 674.14217294963 685.22883779048 C 678.36617294963 685.93283779048 681.82217294963 686.68483779048 684.51017294963 687.48483779048 C 687.19817294963 688.28483779048 689.53417294963 689.74083779048 691.51817294963 691.85283779048 C 693.50217294963 693.96483779048 694.49417294963 696.90883779048 694.49417294963 700.68483779048 C 694.49417294963 703.88483779048 693.53417294963 706.73283779048 691.61417294963 709.22883779048 C 689.69417294963 711.72483779048 686.89417294963 713.66083779048 683.21417294963 715.03683779048 C 679.53417294963 716.41283779048 675.16617294963 717.10083779048 670.11017294963 717.10083779048 C 665.82217294963 717.10083779048 661.63017294963 716.57283779048 657.53417294963 715.51683779048 Z M 713.83817294963 713.69283779048 C 709.45417294963 711.42083779048 706.03017294963 708.26883779048 703.56617294963 704.23683779048 C 701.10217294963 700.20483779048 699.87017294963 695.62883779048 699.87017294963 690.50883779048 C 699.87017294963 685.38883779048 701.10217294963 680.81283779048 703.56617294963 676.78083779048 C 706.03017294963 672.74883779048 709.45417294963 669.59683779048 713.83817294963 667.32483779048 C 718.22217294963 665.05283779048 723.16617294963 663.91683779048 728.67017294963 663.91683779048 C 734.11017294963 663.91683779048 738.86217294963 665.05283779048 742.92617294963 667.32483779048 C 746.99017294963 669.59683779048 749.95017294963 672.84483779048 751.80617294963 677.06883779048 L 740.19017294963 683.30883779048 C 737.50217294963 678.57283779048 733.63017294963 676.20483779048 728.57417294963 676.20483779048 C 724.67017294963 676.20483779048 721.43817294963 677.48483779048 718.87817294963 680.04483779048 C 716.31817294963 682.60483779048 715.03817294963 686.09283779048 715.03817294963 690.50883779048 C 715.03817294963 694.92483779048 716.31817294963 698.41283779048 718.87817294963 700.97283779048 C 721.43817294963 703.53283779048 724.67017294963 704.81283779048 728.57417294963 704.81283779048 C 733.69417294963 704.81283779048 737.56617294963 702.44483779048 740.19017294963 697.70883779048 L 751.80617294963 704.04483779048 C 749.95017294963 708.14083779048 746.99017294963 711.34083779048 742.92617294963 713.64483779048 C 738.86217294963 715.94883779048 734.11017294963 717.10083779048 728.67017294963 717.10083779048 C 723.16617294963 717.10083779048 718.22217294963 715.96483779048 713.83817294963 713.69283779048 Z M 812.47817294963 664.68483779048 L 812.47817294963 716.33283779048 L 798.27017294963 716.33283779048 L 798.27017294963 710.18883779048 C 796.28617294963 712.42883779048 793.91817294963 714.14083779048 791.16617294963 715.32483779048 C 788.41417294963 716.50883779048 785.43817294963 717.10083779048 782.23817294963 717.10083779048 C 775.45417294963 717.10083779048 770.07817294963 715.14883779048 766.11017294963 711.24483779048 C 762.14217294963 707.34083779048 760.15817294963 701.54883779048 760.15817294963 693.86883779048 L 760.15817294963 664.68483779048 L 775.13417294963 664.68483779048 L 775.13417294963 691.66083779048 C 775.13417294963 699.98083779048 778.62217294963 704.14083779048 785.59817294963 704.14083779048 C 789.18217294963 704.14083779048 792.06217294963 702.97283779048 794.23817294963 700.63683779048 C 796.41417294963 698.30083779048 797.50217294963 694.82883779048 797.50217294963 690.22083779048 L 797.50217294963 664.68483779048 L 812.47817294963 664.68483779048 Z M 876.70217294963 694.73283779048 L 837.63017294963 694.73283779048 C 838.33417294963 697.93283779048 839.99817294963 700.46083779048 842.62217294963 702.31683779048 C 845.24617294963 704.17283779048 848.51017294963 705.10083779048 852.41417294963 705.10083779048 C 855.10217294963 705.10083779048 857.48617294963 704.70083779048 859.56617294963 703.90083779048 C 861.64617294963 703.10083779048 863.58217294963 701.83683779048 865.37417294963 700.10883779048 L 873.34217294963 708.74883779048 C 868.47817294963 714.31683779048 861.37417294963 717.10083779048 852.03017294963 717.10083779048 C 846.20617294963 717.10083779048 841.05417294963 715.96483779048 836.57417294963 713.69283779048 C 832.09417294963 711.42083779048 828.63817294963 708.26883779048 826.20617294963 704.23683779048 C 823.77417294963 700.20483779048 822.55817294963 695.62883779048 822.55817294963 690.50883779048 C 822.55817294963 685.45283779048 823.75817294963 680.89283779048 826.15817294963 676.82883779048 C 828.55817294963 672.76483779048 831.85417294963 669.59683779048 836.04617294963 667.32483779048 C 840.23817294963 665.05283779048 844.92617294963 663.91683779048 850.11017294963 663.91683779048 C 855.16617294963 663.91683779048 859.74217294963 665.00483779048 863.83817294963 667.18083779048 C 867.93417294963 669.35683779048 871.15017294963 672.47683779048 873.48617294963 676.54083779048 C 875.82217294963 680.60483779048 876.99017294963 685.32483779048 876.99017294963 690.70083779048 C 876.99017294963 690.89283779048 876.89417294963 692.23683779048 876.70217294963 694.73283779048 Z M 841.66217294963 678.12483779048 C 839.35817294963 680.04483779048 837.95017294963 682.66883779048 837.43817294963 685.99683779048 L 862.87817294963 685.99683779048 C 862.36617294963 682.73283779048 860.95817294963 680.12483779048 858.65417294963 678.17283779048 C 856.35017294963 676.22083779048 853.53417294963 675.24483779048 850.20617294963 675.24483779048 C 846.81417294963 675.24483779048 843.96617294963 676.20483779048 841.66217294963 678.12483779048 Z"/></svg>