<svg width="1000" height="1000" viewBox="0 0 1000 1000" xmlns="http://www.w3.org/2000/svg"><defs/><path fill="#aa36a5" transform="matrix(0.6132767856132468 0 0 0.6132767856132468 -1.5843086383238183 1.9258993256277848)" d="M 754.67590922223 241.46737914484 C 751.17590922223 241.36737914484 668.37590922223 239.66737914484 605.37590922223 308.56737914484 C 565.07590922223 349.06737914484 541.47590922223 403.36737914484 539.17590922223 460.06737914484 C 487.07590922223 463.96737914484 436.07590922223 485.86737914484 396.27590922223 525.56737914484 C 357.17590922223 564.66737914484 333.77590922223 616.46737914484 330.37590922223 671.56737914484 L 328.87590922223 695.76737914484 L 776.57590922223 695.26737914484 L 776.57590922223 242.16737914484 L 754.67590922223 241.46737914484 Z M 637.77590922223 340.26737914484 L 638.47590922223 339.46737914484 C 669.97590922223 304.76737914484 707.77590922223 292.96737914484 731.17590922223 288.86737914484 L 731.17590922223 541.96737914484 C 726.47590922223 536.26737914484 721.57590922223 530.76737914484 716.27590922223 525.56737914484 C 679.27590922223 488.56737914484 632.57590922223 467.06737914484 584.37590922223 461.06737914484 C 586.57590922223 415.86737914484 605.47590922223 372.56737914484 637.77590922223 340.26737914484 Z M 642.27590922223 597.86737914484 C 617.27590922223 572.86737914484 599.77590922223 541.86737914484 591.17590922223 508.06737914484 C 625.27590922223 514.76737914484 657.87590922223 531.26737914484 684.27590922223 557.66737914484 C 723.57590922223 599.76737914484 731.27590922223 648.76737914484 731.27590922223 648.76737914484 C 697.67590922223 640.16737914484 666.97590922223 622.56737914484 642.27590922223 597.86737914484 Z M 428.27590922223 557.66737914484 C 460.47590922223 525.46737914484 501.77590922223 508.06737914484 543.97590922223 505.16737914484 C 552.97590922223 552.16737914484 575.87590922223 595.66737914484 610.17590922223 629.96737914484 C 617.37590922223 637.16737914484 624.97590922223 643.76737914484 632.87590922223 649.96737914484 L 378.67590922223 650.26737914484 C 385.77590922223 615.36737914484 402.87590922223 583.16737914484 428.27590922223 557.66737914484 Z"/><path fill="#aa36a5" transform="matrix(0.6132767856132468 0 0 0.6132767856132468 -1.5843086383238183 1.9258993256277848)" d="M 453.37590922223 443.36737914484 C 473.37590922223 443.36737914484 492.17590922223 435.56737914484 506.37590922223 421.46737914484 C 520.57590922223 407.26737914484 528.27590922223 388.46737914484 528.27590922223 368.46737914484 C 528.27590922223 348.46737914484 520.47590922223 329.66737914484 506.37590922223 315.46737914484 L 506.37590922223 315.46737914484 C 492.17590922223 301.26737914484 473.37590922223 293.56737914484 453.37590922223 293.56737914484 C 433.37590922223 293.56737914484 414.57590922223 301.36737914484 400.37590922223 315.46737914484 C 386.17590922223 329.66737914484 378.37590922223 348.46737914484 378.37590922223 368.46737914484 C 378.37590922223 388.46737914484 386.17590922223 407.26737914484 400.27590922223 421.46737914484 C 414.47590922223 435.56737914484 433.37590922223 443.36737914484 453.37590922223 443.36737914484 Z M 432.47590922223 347.56737914484 C 438.07590922223 341.96737914484 445.47590922223 338.86737914484 453.37590922223 338.86737914484 C 461.27590922223 338.86737914484 468.67590922223 341.96737914484 474.27590922223 347.56737914484 L 474.27590922223 347.56737914484 C 479.87590922223 353.16737914484 482.97590922223 360.56737914484 482.97590922223 368.46737914484 C 482.97590922223 376.36737914484 479.87590922223 383.76737914484 474.27590922223 389.36737914484 C 468.67590922223 394.96737914484 461.27590922223 398.06737914484 453.37590922223 398.06737914484 C 445.47590922223 398.06737914484 438.07590922223 394.96737914484 432.47590922223 389.36737914484 C 426.87590922223 383.76737914484 423.77590922223 376.36737914484 423.77590922223 368.46737914484 C 423.77590922223 360.56737914484 426.87590922223 353.16737914484 432.47590922223 347.56737914484 Z"/><path fill="#aa36a5" transform="matrix(0.6132767856132468 0 0 0.6132767856132468 -1.5843086383238183 1.9258993256277848)" d="M 881.07590922223 1231.46737914484 C 884.57590922223 1231.56737914484 967.37590922223 1233.26737914484 1030.37590922223 1164.36737914484 C 1070.67590922223 1123.86737914484 1094.27590922223 1069.56737914484 1096.57590922223 1012.86737914484 C 1148.67590922223 1008.96737914484 1199.67590922223 987.06737914484 1239.47590922223 947.36737914484 C 1278.57590922223 908.26737914484 1301.97590922223 856.46737914484 1305.37590922223 801.36737914484 L 1306.87590922223 777.26737914484 L 859.17590922223 777.76737914484 L 859.17590922223 1230.86737914484 L 881.07590922223 1231.46737914484 Z M 997.97590922223 1132.66737914484 L 997.27590922223 1133.46737914484 C 965.77590922223 1168.16737914484 927.97590922223 1179.96737914484 904.57590922223 1184.06737914484 L 904.57590922223 930.96737914484 C 909.27590922223 936.66737914484 914.17590922223 942.16737914484 919.47590922223 947.36737914484 C 956.47590922223 984.36737914484 1003.17590922223 1005.86737914484 1051.37590922223 1011.86737914484 C 1049.17590922223 1057.06737914484 1030.27590922223 1100.36737914484 997.97590922223 1132.66737914484 Z M 993.47590922223 875.06737914484 C 1018.47590922223 900.06737914484 1035.97590922223 931.06737914484 1044.57590922223 964.86737914484 C 1010.47590922223 958.16737914484 977.87590922223 941.66737914484 951.47590922223 915.26737914484 C 912.17590922223 873.16737914484 904.47590922223 824.16737914484 904.47590922223 824.16737914484 C 938.07590922223 832.76737914484 968.77590922223 850.36737914484 993.47590922223 875.06737914484 Z M 1207.47590922223 915.26737914484 C 1175.27590922223 947.46737914484 1133.97590922223 964.86737914484 1091.77590922223 967.76737914484 C 1082.77590922223 920.76737914484 1059.87590922223 877.26737914484 1025.57590922223 842.96737914484 C 1018.37590922223 835.76737914484 1010.77590922223 829.16737914484 1002.87590922223 822.96737914484 L 1257.07590922223 822.66737914484 C 1249.97590922223 857.56737914484 1232.87590922223 889.76737914484 1207.47590922223 915.26737914484 Z"/><path fill="#aa36a5" transform="matrix(0.6132767856132468 0 0 0.6132767856132468 -1.5843086383238183 1.9258993256277848)" d="M 1182.37590922223 1029.56737914484 C 1162.37590922223 1029.56737914484 1143.57590922223 1037.36737914484 1129.37590922223 1051.46737914484 C 1115.17590922223 1065.56737914484 1107.47590922223 1084.46737914484 1107.47590922223 1104.46737914484 C 1107.47590922223 1124.46737914484 1115.27590922223 1143.26737914484 1129.37590922223 1157.46737914484 L 1129.37590922223 1157.46737914484 C 1143.57590922223 1171.66737914484 1162.37590922223 1179.36737914484 1182.37590922223 1179.36737914484 C 1202.37590922223 1179.36737914484 1221.17590922223 1171.56737914484 1235.37590922223 1157.46737914484 C 1249.57590922223 1143.26737914484 1257.37590922223 1124.46737914484 1257.37590922223 1104.46737914484 C 1257.37590922223 1084.46737914484 1249.57590922223 1065.66737914484 1235.47590922223 1051.46737914484 C 1221.27590922223 1037.36737914484 1202.37590922223 1029.56737914484 1182.37590922223 1029.56737914484 Z M 1203.27590922223 1125.36737914484 C 1197.67590922223 1130.96737914484 1190.27590922223 1134.06737914484 1182.37590922223 1134.06737914484 C 1174.47590922223 1134.06737914484 1167.07590922223 1130.96737914484 1161.47590922223 1125.36737914484 L 1161.47590922223 1125.36737914484 C 1155.87590922223 1119.76737914484 1152.77590922223 1112.36737914484 1152.77590922223 1104.46737914484 C 1152.77590922223 1096.56737914484 1155.87590922223 1089.16737914484 1161.47590922223 1083.56737914484 C 1167.07590922223 1077.96737914484 1174.47590922223 1074.86737914484 1182.37590922223 1074.86737914484 C 1190.27590922223 1074.86737914484 1197.67590922223 1077.96737914484 1203.27590922223 1083.56737914484 C 1208.87590922223 1089.16737914484 1211.97590922223 1096.56737914484 1211.97590922223 1104.46737914484 C 1211.97590922223 1112.36737914484 1208.87590922223 1119.76737914484 1203.27590922223 1125.36737914484 Z"/><path fill="#00acee" transform="matrix(0.6132767856132468 0 0 0.6132767856132468 -1.5843086383238183 1.9258993256277848)" d="M 1312.87590922223 673.26737914484 C 1312.97590922223 669.76737914484 1314.67590922223 586.96737914484 1245.77590922223 523.96737914484 C 1205.27590922223 483.66737914484 1150.97590922223 460.06737914484 1094.27590922223 457.76737914484 C 1090.37590922223 405.66737914484 1068.47590922223 354.66737914484 1028.77590922223 314.86737914484 C 989.67590922223 275.76737914484 937.87590922223 252.36737914484 882.77590922223 248.96737914484 L 858.57590922223 247.46737914484 L 859.07590922223 695.16737914484 L 1312.17590922223 695.16737914484 L 1312.87590922223 673.26737914484 Z M 1214.07590922223 556.36737914484 L 1214.87590922223 557.06737914484 C 1249.57590922223 588.56737914484 1261.37590922223 626.36737914484 1265.47590922223 649.76737914484 L 1012.37590922223 649.76737914484 C 1018.07590922223 645.06737914484 1023.57590922223 640.16737914484 1028.77590922223 634.86737914484 C 1065.77590922223 597.86737914484 1087.27590922223 551.16737914484 1093.27590922223 502.96737914484 C 1138.47590922223 505.16737914484 1181.77590922223 524.06737914484 1214.07590922223 556.36737914484 Z M 956.47590922223 560.86737914484 C 981.47590922223 535.86737914484 1012.47590922223 518.36737914484 1046.27590922223 509.76737914484 C 1039.57590922223 543.86737914484 1023.07590922223 576.46737914484 996.67590922223 602.86737914484 C 954.57590922223 642.16737914484 905.57590922223 649.86737914484 905.57590922223 649.86737914484 C 914.17590922223 616.26737914484 931.77590922223 585.56737914484 956.47590922223 560.86737914484 Z M 996.67590922223 346.86737914484 C 1028.87590922223 379.06737914484 1046.27590922223 420.36737914484 1049.17590922223 462.56737914484 C 1002.17590922223 471.56737914484 958.67590922223 494.46737914484 924.37590922223 528.76737914484 C 917.17590922223 535.96737914484 910.57590922223 543.56737914484 904.37590922223 551.46737914484 L 904.07590922223 297.26737914484 C 938.97590922223 304.36737914484 971.17590922223 321.46737914484 996.67590922223 346.86737914484 Z"/><path fill="#00acee" transform="matrix(0.6132767856132468 0 0 0.6132767856132468 -1.5843086383238183 1.9258993256277848)" d="M 1110.97590922223 371.96737914484 C 1110.97590922223 391.96737914484 1118.77590922223 410.76737914484 1132.87590922223 424.96737914484 C 1147.07590922223 439.16737914484 1165.87590922223 446.86737914484 1185.87590922223 446.86737914484 C 1205.87590922223 446.86737914484 1224.67590922223 439.06737914484 1238.87590922223 424.96737914484 L 1238.87590922223 424.96737914484 C 1253.07590922223 410.76737914484 1260.77590922223 391.96737914484 1260.77590922223 371.96737914484 C 1260.77590922223 351.96737914484 1252.97590922223 333.16737914484 1238.87590922223 318.96737914484 C 1224.67590922223 304.76737914484 1205.87590922223 296.96737914484 1185.87590922223 296.96737914484 C 1165.87590922223 296.96737914484 1147.07590922223 304.76737914484 1132.87590922223 318.86737914484 C 1118.77590922223 333.06737914484 1110.97590922223 351.96737914484 1110.97590922223 371.96737914484 Z M 1206.77590922223 351.06737914484 C 1212.37590922223 356.66737914484 1215.47590922223 364.06737914484 1215.47590922223 371.96737914484 C 1215.47590922223 379.86737914484 1212.37590922223 387.26737914484 1206.77590922223 392.86737914484 L 1206.77590922223 392.86737914484 C 1201.17590922223 398.46737914484 1193.77590922223 401.56737914484 1185.87590922223 401.56737914484 C 1177.97590922223 401.56737914484 1170.57590922223 398.46737914484 1164.97590922223 392.86737914484 C 1159.37590922223 387.26737914484 1156.27590922223 379.86737914484 1156.27590922223 371.96737914484 C 1156.27590922223 364.06737914484 1159.37590922223 356.66737914484 1164.97590922223 351.06737914484 C 1170.57590922223 345.46737914484 1177.97590922223 342.36737914484 1185.87590922223 342.36737914484 C 1193.77590922223 342.36737914484 1201.17590922223 345.46737914484 1206.77590922223 351.06737914484 Z"/><path fill="#00acee" transform="matrix(0.6132767856132468 0 0 0.6132767856132468 -1.5843086383238183 1.9258993256277848)" d="M 322.87590922223 799.66737914484 C 322.77590922223 803.16737914484 321.07590922223 885.96737914484 389.97590922223 948.96737914484 C 430.47590922223 989.26737914484 484.77590922223 1012.86737914484 541.47590922223 1015.16737914484 C 545.37590922223 1067.26737914484 567.27590922223 1118.26737914484 606.97590922223 1158.06737914484 C 646.07590922223 1197.16737914484 697.87590922223 1220.56737914484 752.97590922223 1223.96737914484 L 777.07590922223 1225.46737914484 L 776.57590922223 777.76737914484 L 323.57590922223 777.76737914484 L 322.87590922223 799.66737914484 Z M 421.67590922223 916.56737914484 L 420.87590922223 915.86737914484 C 386.17590922223 884.36737914484 374.37590922223 846.56737914484 370.27590922223 823.16737914484 L 623.37590922223 823.16737914484 C 617.67590922223 827.86737914484 612.17590922223 832.76737914484 606.97590922223 838.06737914484 C 569.97590922223 875.06737914484 548.47590922223 921.76737914484 542.47590922223 969.96737914484 C 497.27590922223 967.76737914484 453.97590922223 948.86737914484 421.67590922223 916.56737914484 Z M 679.27590922223 912.06737914484 C 654.27590922223 937.06737914484 623.27590922223 954.56737914484 589.47590922223 963.16737914484 C 596.17590922223 929.06737914484 612.67590922223 896.46737914484 639.07590922223 870.06737914484 C 681.17590922223 830.76737914484 730.17590922223 823.06737914484 730.17590922223 823.06737914484 C 721.57590922223 856.66737914484 703.97590922223 887.36737914484 679.27590922223 912.06737914484 Z M 639.07590922223 1126.06737914484 C 606.87590922223 1093.86737914484 589.47590922223 1052.56737914484 586.57590922223 1010.36737914484 C 633.57590922223 1001.36737914484 677.07590922223 978.46737914484 711.37590922223 944.16737914484 C 718.57590922223 936.96737914484 725.17590922223 929.36737914484 731.37590922223 921.46737914484 L 731.67590922223 1175.66737914484 C 696.77590922223 1168.56737914484 664.57590922223 1151.46737914484 639.07590922223 1126.06737914484 Z"/><path fill="#00acee" transform="matrix(0.6132767856132468 0 0 0.6132767856132468 -1.5843086383238183 1.9258993256277848)" d="M 524.77590922223 1100.96737914484 C 524.77590922223 1080.96737914484 516.97590922223 1062.16737914484 502.87590922223 1047.96737914484 C 488.67590922223 1033.76737914484 469.87590922223 1026.06737914484 449.87590922223 1026.06737914484 C 429.87590922223 1026.06737914484 411.07590922223 1033.86737914484 396.87590922223 1047.96737914484 L 396.87590922223 1047.96737914484 C 382.67590922223 1062.16737914484 374.97590922223 1080.96737914484 374.97590922223 1100.96737914484 C 374.97590922223 1120.96737914484 382.77590922223 1139.76737914484 396.87590922223 1153.96737914484 C 411.07590922223 1168.16737914484 429.87590922223 1175.96737914484 449.87590922223 1175.96737914484 C 469.87590922223 1175.96737914484 488.67590922223 1168.16737914484 502.87590922223 1154.06737914484 C 516.97590922223 1139.86737914484 524.77590922223 1120.96737914484 524.77590922223 1100.96737914484 Z M 428.97590922223 1121.86737914484 C 423.37590922223 1116.26737914484 420.27590922223 1108.86737914484 420.27590922223 1100.96737914484 C 420.27590922223 1093.06737914484 423.37590922223 1085.66737914484 428.97590922223 1080.06737914484 L 428.97590922223 1080.06737914484 C 434.57590922223 1074.46737914484 441.97590922223 1071.36737914484 449.87590922223 1071.36737914484 C 457.77590922223 1071.36737914484 465.17590922223 1074.46737914484 470.77590922223 1080.06737914484 C 476.37590922223 1085.66737914484 479.47590922223 1093.06737914484 479.47590922223 1100.96737914484 C 479.47590922223 1108.86737914484 476.37590922223 1116.26737914484 470.77590922223 1121.86737914484 C 465.17590922223 1127.46737914484 457.77590922223 1130.56737914484 449.87590922223 1130.56737914484 C 441.97590922223 1130.56737914484 434.57590922223 1127.46737914484 428.97590922223 1121.86737914484 Z"/><path id="text" fill="#7c1398" transform="matrix(0.8854363430298451 0 0 0.8854363430298451 -7.0551567812619655 688.4896793630787)" d="M 254.27733333333 137.3836026564 L 245.25333333333 146.7916026564 L 245.25333333333 163.7836026564 L 229.79733333333 163.7836026564 L 229.79733333333 96.5836026564 L 245.25333333333 96.5836026564 L 245.25333333333 127.9756026564 L 275.01333333333 96.5836026564 L 292.29333333333 96.5836026564 L 264.45333333333 126.5356026564 L 293.92533333333 163.7836026564 L 275.78133333333 163.7836026564 L 254.27733333333 137.3836026564 Z M 298.82133333333 112.1356026564 L 313.79733333333 112.1356026564 L 313.79733333333 163.7836026564 L 298.82133333333 163.7836026564 L 298.82133333333 112.1356026564 Z M 299.58933333333 102.5356026564 C 297.86133333333 100.9356026564 296.99733333333 98.9516026564 296.99733333333 96.5836026564 C 296.99733333333 94.2156026564 297.86133333333 92.2316026564 299.58933333333 90.6316026564 C 301.31733333333 89.0316026564 303.55733333333 88.2316026564 306.30933333333 88.2316026564 C 309.06133333333 88.2316026564 311.30133333333 88.9996026564 313.02933333333 90.5356026564 C 314.75733333333 92.0716026564 315.62133333333 93.9916026564 315.62133333333 96.2956026564 C 315.62133333333 98.7916026564 314.75733333333 100.8556026564 313.02933333333 102.4876026564 C 311.30133333333 104.1196026564 309.06133333333 104.9356026564 306.30933333333 104.9356026564 C 303.55733333333 104.9356026564 301.31733333333 104.1356026564 299.58933333333 102.5356026564 Z M 371.34933333333 114.6796026564 C 375.28533333333 116.8876026564 378.37333333333 119.9916026564 380.61333333333 123.9916026564 C 382.85333333333 127.9916026564 383.97333333333 132.6476026564 383.97333333333 137.9596026564 C 383.97333333333 143.2716026564 382.85333333333 147.9276026564 380.61333333333 151.9276026564 C 378.37333333333 155.9276026564 375.28533333333 159.0316026564 371.34933333333 161.2396026564 C 367.41333333333 163.4476026564 363.04533333333 164.5516026564 358.24533333333 164.5516026564 C 351.65333333333 164.5516026564 346.46933333333 162.4716026564 342.69333333333 158.3116026564 L 342.69333333333 182.4076026564 L 327.71733333333 182.4076026564 L 327.71733333333 112.1356026564 L 342.02133333333 112.1356026564 L 342.02133333333 118.0876026564 C 345.73333333333 113.6076026564 351.14133333333 111.3676026564 358.24533333333 111.3676026564 C 363.04533333333 111.3676026564 367.41333333333 112.4716026564 371.34933333333 114.6796026564 Z M 365.10933333333 148.3756026564 C 367.57333333333 145.7836026564 368.80533333333 142.3116026564 368.80533333333 137.9596026564 C 368.80533333333 133.6076026564 367.57333333333 130.1356026564 365.10933333333 127.5436026564 C 362.64533333333 124.9516026564 359.49333333333 123.6556026564 355.65333333333 123.6556026564 C 351.81333333333 123.6556026564 348.66133333333 124.9516026564 346.19733333333 127.5436026564 C 343.73333333333 130.1356026564 342.50133333333 133.6076026564 342.50133333333 137.9596026564 C 342.50133333333 142.3116026564 343.73333333333 145.7836026564 346.19733333333 148.3756026564 C 348.66133333333 150.9676026564 351.81333333333 152.2636026564 355.65333333333 152.2636026564 C 359.49333333333 152.2636026564 362.64533333333 150.9676026564 365.10933333333 148.3756026564 Z M 445.98933333333 112.1356026564 L 445.98933333333 163.7836026564 L 431.78133333333 163.7836026564 L 431.78133333333 157.6396026564 C 429.79733333333 159.8796026564 427.42933333333 161.5916026564 424.67733333333 162.7756026564 C 421.92533333333 163.9596026564 418.94933333333 164.5516026564 415.74933333333 164.5516026564 C 408.96533333333 164.5516026564 403.58933333333 162.5996026564 399.62133333333 158.6956026564 C 395.65333333333 154.7916026564 393.66933333333 148.9996026564 393.66933333333 141.3196026564 L 393.66933333333 112.1356026564 L 408.64533333333 112.1356026564 L 408.64533333333 139.1116026564 C 408.64533333333 147.4316026564 412.13333333333 151.5916026564 419.10933333333 151.5916026564 C 422.69333333333 151.5916026564 425.57333333333 150.4236026564 427.74933333333 148.0876026564 C 429.92533333333 145.7516026564 431.01333333333 142.2796026564 431.01333333333 137.6716026564 L 431.01333333333 112.1356026564 L 445.98933333333 112.1356026564 Z M 457.70133333333 96.5836026564 L 470.46933333333 96.5836026564 L 469.41333333333 123.8476026564 L 458.66133333333 123.8476026564 L 457.70133333333 96.5836026564 Z M 486.78933333333 162.9676026564 C 482.69333333333 161.9116026564 479.42933333333 160.5836026564 476.99733333333 158.9836026564 L 481.98933333333 148.2316026564 C 484.29333333333 149.7036026564 487.07733333333 150.9036026564 490.34133333333 151.8316026564 C 493.60533333333 152.7596026564 496.80533333333 153.2236026564 499.94133333333 153.2236026564 C 506.27733333333 153.2236026564 509.44533333333 151.6556026564 509.44533333333 148.5196026564 C 509.44533333333 147.0476026564 508.58133333333 145.9916026564 506.85333333333 145.3516026564 C 505.12533333333 144.7116026564 502.46933333333 144.1676026564 498.88533333333 143.7196026564 C 494.66133333333 143.0796026564 491.17333333333 142.3436026564 488.42133333333 141.5116026564 C 485.66933333333 140.6796026564 483.28533333333 139.2076026564 481.26933333333 137.0956026564 C 479.25333333333 134.9836026564 478.24533333333 131.9756026564 478.24533333333 128.0716026564 C 478.24533333333 124.8076026564 479.18933333333 121.9116026564 481.07733333333 119.3836026564 C 482.96533333333 116.8556026564 485.71733333333 114.8876026564 489.33333333333 113.4796026564 C 492.94933333333 112.0716026564 497.22133333333 111.3676026564 502.14933333333 111.3676026564 C 505.79733333333 111.3676026564 509.42933333333 111.7676026564 513.04533333333 112.5676026564 C 516.66133333333 113.3676026564 519.65333333333 114.4716026564 522.02133333333 115.8796026564 L 517.02933333333 126.5356026564 C 512.48533333333 123.9756026564 507.52533333333 122.6956026564 502.14933333333 122.6956026564 C 498.94933333333 122.6956026564 496.54933333333 123.1436026564 494.94933333333 124.0396026564 C 493.34933333333 124.9356026564 492.54933333333 126.0876026564 492.54933333333 127.4956026564 C 492.54933333333 129.0956026564 493.41333333333 130.2156026564 495.14133333333 130.8556026564 C 496.86933333333 131.4956026564 499.62133333333 132.1036026564 503.39733333333 132.6796026564 C 507.62133333333 133.3836026564 511.07733333333 134.1356026564 513.76533333333 134.9356026564 C 516.45333333333 135.7356026564 518.78933333333 137.1916026564 520.77333333333 139.3036026564 C 522.75733333333 141.4156026564 523.74933333333 144.3596026564 523.74933333333 148.1356026564 C 523.74933333333 151.3356026564 522.78933333333 154.1836026564 520.86933333333 156.6796026564 C 518.94933333333 159.1756026564 516.14933333333 161.1116026564 512.46933333333 162.4876026564 C 508.78933333333 163.8636026564 504.42133333333 164.5516026564 499.36533333333 164.5516026564 C 495.07733333333 164.5516026564 490.88533333333 164.0236026564 486.78933333333 162.9676026564 Z M 604.00533333333 163.7836026564 L 591.04533333333 145.0636026564 L 590.27733333333 145.0636026564 L 576.74133333333 145.0636026564 L 576.74133333333 163.7836026564 L 561.18933333333 163.7836026564 L 561.18933333333 96.5836026564 L 590.27733333333 96.5836026564 C 596.22933333333 96.5836026564 601.39733333333 97.5756026564 605.78133333333 99.5596026564 C 610.16533333333 101.5436026564 613.54133333333 104.3596026564 615.90933333333 108.0076026564 C 618.27733333333 111.6556026564 619.46133333333 115.9756026564 619.46133333333 120.9676026564 C 619.46133333333 125.9596026564 618.26133333333 130.2636026564 615.86133333333 133.8796026564 C 613.46133333333 137.4956026564 610.05333333333 140.2636026564 605.63733333333 142.1836026564 L 620.70933333333 163.7836026564 L 604.00533333333 163.7836026564 Z M 600.06933333333 112.2796026564 C 597.63733333333 110.2636026564 594.08533333333 109.2556026564 589.41333333333 109.2556026564 L 576.74133333333 109.2556026564 L 576.74133333333 132.6796026564 L 589.41333333333 132.6796026564 C 594.08533333333 132.6796026564 597.63733333333 131.6556026564 600.06933333333 129.6076026564 C 602.50133333333 127.5596026564 603.71733333333 124.6796026564 603.71733333333 120.9676026564 C 603.71733333333 117.1916026564 602.50133333333 114.2956026564 600.06933333333 112.2796026564 Z M 680.99733333333 142.1836026564 L 641.92533333333 142.1836026564 C 642.62933333333 145.3836026564 644.29333333333 147.9116026564 646.91733333333 149.7676026564 C 649.54133333333 151.6236026564 652.80533333333 152.5516026564 656.70933333333 152.5516026564 C 659.39733333333 152.5516026564 661.78133333333 152.1516026564 663.86133333333 151.3516026564 C 665.94133333333 150.5516026564 667.87733333333 149.2876026564 669.66933333333 147.5596026564 L 677.63733333333 156.1996026564 C 672.77333333333 161.7676026564 665.66933333333 164.5516026564 656.32533333333 164.5516026564 C 650.50133333333 164.5516026564 645.34933333333 163.4156026564 640.86933333333 161.1436026564 C 636.38933333333 158.8716026564 632.93333333333 155.7196026564 630.50133333333 151.6876026564 C 628.06933333333 147.6556026564 626.85333333333 143.0796026564 626.85333333333 137.9596026564 C 626.85333333333 132.9036026564 628.05333333333 128.3436026564 630.45333333333 124.2796026564 C 632.85333333333 120.2156026564 636.14933333333 117.0476026564 640.34133333333 114.7756026564 C 644.53333333333 112.5036026564 649.22133333333 111.3676026564 654.40533333333 111.3676026564 C 659.46133333333 111.3676026564 664.03733333333 112.4556026564 668.13333333333 114.6316026564 C 672.22933333333 116.8076026564 675.44533333333 119.9276026564 677.78133333333 123.9916026564 C 680.11733333333 128.0556026564 681.28533333333 132.7756026564 681.28533333333 138.1516026564 C 681.28533333333 138.3436026564 681.18933333333 139.6876026564 680.99733333333 142.1836026564 Z M 645.95733333333 125.5756026564 C 643.65333333333 127.4956026564 642.24533333333 130.1196026564 641.73333333333 133.4476026564 L 667.17333333333 133.4476026564 C 666.66133333333 130.1836026564 665.25333333333 127.5756026564 662.94933333333 125.6236026564 C 660.64533333333 123.6716026564 657.82933333333 122.6956026564 654.50133333333 122.6956026564 C 651.10933333333 122.6956026564 648.26133333333 123.6556026564 645.95733333333 125.5756026564 Z M 696.06933333333 162.9676026564 C 691.97333333333 161.9116026564 688.70933333333 160.5836026564 686.27733333333 158.9836026564 L 691.26933333333 148.2316026564 C 693.57333333333 149.7036026564 696.35733333333 150.9036026564 699.62133333333 151.8316026564 C 702.88533333333 152.7596026564 706.08533333333 153.2236026564 709.22133333333 153.2236026564 C 715.55733333333 153.2236026564 718.72533333333 151.6556026564 718.72533333333 148.5196026564 C 718.72533333333 147.0476026564 717.86133333333 145.9916026564 716.13333333333 145.3516026564 C 714.40533333333 144.7116026564 711.74933333333 144.1676026564 708.16533333333 143.7196026564 C 703.94133333333 143.0796026564 700.45333333333 142.3436026564 697.70133333333 141.5116026564 C 694.94933333333 140.6796026564 692.56533333333 139.2076026564 690.54933333333 137.0956026564 C 688.53333333333 134.9836026564 687.52533333333 131.9756026564 687.52533333333 128.0716026564 C 687.52533333333 124.8076026564 688.46933333333 121.9116026564 690.35733333333 119.3836026564 C 692.24533333333 116.8556026564 694.99733333333 114.8876026564 698.61333333333 113.4796026564 C 702.22933333333 112.0716026564 706.50133333333 111.3676026564 711.42933333333 111.3676026564 C 715.07733333333 111.3676026564 718.70933333333 111.7676026564 722.32533333333 112.5676026564 C 725.94133333333 113.3676026564 728.93333333333 114.4716026564 731.30133333333 115.8796026564 L 726.30933333333 126.5356026564 C 721.76533333333 123.9756026564 716.80533333333 122.6956026564 711.42933333333 122.6956026564 C 708.22933333333 122.6956026564 705.82933333333 123.1436026564 704.22933333333 124.0396026564 C 702.62933333333 124.9356026564 701.82933333333 126.0876026564 701.82933333333 127.4956026564 C 701.82933333333 129.0956026564 702.69333333333 130.2156026564 704.42133333333 130.8556026564 C 706.14933333333 131.4956026564 708.90133333333 132.1036026564 712.67733333333 132.6796026564 C 716.90133333333 133.3836026564 720.35733333333 134.1356026564 723.04533333333 134.9356026564 C 725.73333333333 135.7356026564 728.06933333333 137.1916026564 730.05333333333 139.3036026564 C 732.03733333333 141.4156026564 733.02933333333 144.3596026564 733.02933333333 148.1356026564 C 733.02933333333 151.3356026564 732.06933333333 154.1836026564 730.14933333333 156.6796026564 C 728.22933333333 159.1756026564 725.42933333333 161.1116026564 721.74933333333 162.4876026564 C 718.06933333333 163.8636026564 713.70133333333 164.5516026564 708.64533333333 164.5516026564 C 704.35733333333 164.5516026564 700.16533333333 164.0236026564 696.06933333333 162.9676026564 Z M 752.37333333333 161.1436026564 C 747.98933333333 158.8716026564 744.56533333333 155.7196026564 742.10133333333 151.6876026564 C 739.63733333333 147.6556026564 738.40533333333 143.0796026564 738.40533333333 137.9596026564 C 738.40533333333 132.8396026564 739.63733333333 128.2636026564 742.10133333333 124.2316026564 C 744.56533333333 120.1996026564 747.98933333333 117.0476026564 752.37333333333 114.7756026564 C 756.75733333333 112.5036026564 761.70133333333 111.3676026564 767.20533333333 111.3676026564 C 772.64533333333 111.3676026564 777.39733333333 112.5036026564 781.46133333333 114.7756026564 C 785.52533333333 117.0476026564 788.48533333333 120.2956026564 790.34133333333 124.5196026564 L 778.72533333333 130.7596026564 C 776.03733333333 126.0236026564 772.16533333333 123.6556026564 767.10933333333 123.6556026564 C 763.20533333333 123.6556026564 759.97333333333 124.9356026564 757.41333333333 127.4956026564 C 754.85333333333 130.0556026564 753.57333333333 133.5436026564 753.57333333333 137.9596026564 C 753.57333333333 142.3756026564 754.85333333333 145.8636026564 757.41333333333 148.4236026564 C 759.97333333333 150.9836026564 763.20533333333 152.2636026564 767.10933333333 152.2636026564 C 772.22933333333 152.2636026564 776.10133333333 149.8956026564 778.72533333333 145.1596026564 L 790.34133333333 151.4956026564 C 788.48533333333 155.5916026564 785.52533333333 158.7916026564 781.46133333333 161.0956026564 C 777.39733333333 163.3996026564 772.64533333333 164.5516026564 767.20533333333 164.5516026564 C 761.70133333333 164.5516026564 756.75733333333 163.4156026564 752.37333333333 161.1436026564 Z M 851.01333333333 112.1356026564 L 851.01333333333 163.7836026564 L 836.80533333333 163.7836026564 L 836.80533333333 157.6396026564 C 834.82133333333 159.8796026564 832.45333333333 161.5916026564 829.70133333333 162.7756026564 C 826.94933333333 163.9596026564 823.97333333333 164.5516026564 820.77333333333 164.5516026564 C 813.98933333333 164.5516026564 808.61333333333 162.5996026564 804.64533333333 158.6956026564 C 800.67733333333 154.7916026564 798.69333333333 148.9996026564 798.69333333333 141.3196026564 L 798.69333333333 112.1356026564 L 813.66933333333 112.1356026564 L 813.66933333333 139.1116026564 C 813.66933333333 147.4316026564 817.15733333333 151.5916026564 824.13333333333 151.5916026564 C 827.71733333333 151.5916026564 830.59733333333 150.4236026564 832.77333333333 148.0876026564 C 834.94933333333 145.7516026564 836.03733333333 142.2796026564 836.03733333333 137.6716026564 L 836.03733333333 112.1356026564 L 851.01333333333 112.1356026564 Z M 915.23733333333 142.1836026564 L 876.16533333333 142.1836026564 C 876.86933333333 145.3836026564 878.53333333333 147.9116026564 881.15733333333 149.7676026564 C 883.78133333333 151.6236026564 887.04533333333 152.5516026564 890.94933333333 152.5516026564 C 893.63733333333 152.5516026564 896.02133333333 152.1516026564 898.10133333333 151.3516026564 C 900.18133333333 150.5516026564 902.11733333333 149.2876026564 903.90933333333 147.5596026564 L 911.87733333333 156.1996026564 C 907.01333333333 161.7676026564 899.90933333333 164.5516026564 890.56533333333 164.5516026564 C 884.74133333333 164.5516026564 879.58933333333 163.4156026564 875.10933333333 161.1436026564 C 870.62933333333 158.8716026564 867.17333333333 155.7196026564 864.74133333333 151.6876026564 C 862.30933333333 147.6556026564 861.09333333333 143.0796026564 861.09333333333 137.9596026564 C 861.09333333333 132.9036026564 862.29333333333 128.3436026564 864.69333333333 124.2796026564 C 867.09333333333 120.2156026564 870.38933333333 117.0476026564 874.58133333333 114.7756026564 C 878.77333333333 112.5036026564 883.46133333333 111.3676026564 888.64533333333 111.3676026564 C 893.70133333333 111.3676026564 898.27733333333 112.4556026564 902.37333333333 114.6316026564 C 906.46933333333 116.8076026564 909.68533333333 119.9276026564 912.02133333333 123.9916026564 C 914.35733333333 128.0556026564 915.52533333333 132.7756026564 915.52533333333 138.1516026564 C 915.52533333333 138.3436026564 915.42933333333 139.6876026564 915.23733333333 142.1836026564 Z M 880.19733333333 125.5756026564 C 877.89333333333 127.4956026564 876.48533333333 130.1196026564 875.97333333333 133.4476026564 L 901.41333333333 133.4476026564 C 900.90133333333 130.1836026564 899.49333333333 127.5756026564 897.18933333333 125.6236026564 C 894.88533333333 123.6716026564 892.06933333333 122.6956026564 888.74133333333 122.6956026564 C 885.34933333333 122.6956026564 882.50133333333 123.6556026564 880.19733333333 125.5756026564 Z"/></svg>