<svg width="1000" height="1000" viewBox="0 0 1000 1000" xmlns="http://www.w3.org/2000/svg"><defs/><path fill="#a2d183" d="M 0 0 L 1000 0 L 1000 1000 L 0 1000 Z"/><path fill="#0f3877" transform="matrix(0.19420646878136885 0 0 0.19420646878136885 4.116537984027475 4.012888703436351)" d="M 2490.18282564739 1643.20405631501 C 2486.68282564739 1643.10405631501 2403.88282564739 1641.40405631501 2340.88282564739 1710.30405631501 C 2300.58282564739 1750.80405631501 2276.98282564739 1805.10405631501 2274.68282564739 1861.80405631501 C 2222.58282564739 1865.70405631501 2171.58282564739 1887.60405631501 2131.78282564739 1927.30405631501 C 2092.68282564739 1966.40405631501 2069.28282564739 2018.20405631501 2065.88282564739 2073.30405631501 L 2064.38282564739 2097.50405631501 L 2512.08282564739 2097.00405631501 L 2512.08282564739 1643.90405631501 L 2490.18282564739 1643.20405631501 Z M 2373.28282564739 1742.00405631501 L 2373.98282564739 1741.20405631501 C 2405.48282564739 1706.50405631501 2443.28282564739 1694.70405631501 2466.68282564739 1690.60405631501 L 2466.68282564739 1943.70405631501 C 2461.98282564739 1938.00405631501 2457.08282564739 1932.50405631501 2451.78282564739 1927.30405631501 C 2414.78282564739 1890.30405631501 2368.08282564739 1868.80405631501 2319.88282564739 1862.80405631501 C 2322.08282564739 1817.60405631501 2340.98282564739 1774.30405631501 2373.28282564739 1742.00405631501 Z M 2377.78282564739 1999.60405631501 C 2352.78282564739 1974.60405631501 2335.28282564739 1943.60405631501 2326.68282564739 1909.80405631501 C 2360.78282564739 1916.50405631501 2393.38282564739 1933.00405631501 2419.78282564739 1959.40405631501 C 2459.08282564739 2001.50405631501 2466.78282564739 2050.50405631501 2466.78282564739 2050.50405631501 C 2433.18282564739 2041.90405631501 2402.48282564739 2024.30405631501 2377.78282564739 1999.60405631501 Z M 2163.78282564739 1959.40405631501 C 2195.98282564739 1927.20405631501 2237.28282564739 1909.80405631501 2279.48282564739 1906.90405631501 C 2288.48282564739 1953.90405631501 2311.38282564739 1997.40405631501 2345.68282564739 2031.70405631501 C 2352.88282564739 2038.90405631501 2360.48282564739 2045.50405631501 2368.38282564739 2051.70405631501 L 2114.18282564739 2052.00405631501 C 2121.28282564739 2017.10405631501 2138.38282564739 1984.90405631501 2163.78282564739 1959.40405631501 Z"/><path fill="#0f3877" transform="matrix(0.19420646878136885 0 0 0.19420646878136885 4.116537984027475 4.012888703436351)" d="M 2188.88282564739 1845.10405631501 C 2208.88282564739 1845.10405631501 2227.68282564739 1837.30405631501 2241.88282564739 1823.20405631501 C 2256.08282564739 1809.00405631501 2263.78282564739 1790.20405631501 2263.78282564739 1770.20405631501 C 2263.78282564739 1750.20405631501 2255.98282564739 1731.40405631501 2241.88282564739 1717.20405631501 L 2241.88282564739 1717.20405631501 C 2227.68282564739 1703.00405631501 2208.88282564739 1695.30405631501 2188.88282564739 1695.30405631501 C 2168.88282564739 1695.30405631501 2150.08282564739 1703.10405631501 2135.88282564739 1717.20405631501 C 2121.68282564739 1731.40405631501 2113.88282564739 1750.20405631501 2113.88282564739 1770.20405631501 C 2113.88282564739 1790.20405631501 2121.68282564739 1809.00405631501 2135.78282564739 1823.20405631501 C 2149.98282564739 1837.30405631501 2168.88282564739 1845.10405631501 2188.88282564739 1845.10405631501 Z M 2167.98282564739 1749.30405631501 C 2173.58282564739 1743.70405631501 2180.98282564739 1740.60405631501 2188.88282564739 1740.60405631501 C 2196.78282564739 1740.60405631501 2204.18282564739 1743.70405631501 2209.78282564739 1749.30405631501 L 2209.78282564739 1749.30405631501 C 2215.38282564739 1754.90405631501 2218.48282564739 1762.30405631501 2218.48282564739 1770.20405631501 C 2218.48282564739 1778.10405631501 2215.38282564739 1785.50405631501 2209.78282564739 1791.10405631501 C 2204.18282564739 1796.70405631501 2196.78282564739 1799.80405631501 2188.88282564739 1799.80405631501 C 2180.98282564739 1799.80405631501 2173.58282564739 1796.70405631501 2167.98282564739 1791.10405631501 C 2162.38282564739 1785.50405631501 2159.28282564739 1778.10405631501 2159.28282564739 1770.20405631501 C 2159.28282564739 1762.30405631501 2162.38282564739 1754.90405631501 2167.98282564739 1749.30405631501 Z"/><path fill="#0f3877" transform="matrix(0.19420646878136885 0 0 0.19420646878136885 4.116537984027475 4.012888703436351)" d="M 2616.58282564739 2633.20405631501 C 2620.08282564739 2633.30405631501 2702.88282564739 2635.00405631501 2765.88282564739 2566.10405631501 C 2806.18282564739 2525.60405631501 2829.78282564739 2471.30405631501 2832.08282564739 2414.60405631501 C 2884.18282564739 2410.70405631501 2935.18282564739 2388.80405631501 2974.98282564739 2349.10405631501 C 3014.08282564739 2310.00405631501 3037.48282564739 2258.20405631501 3040.88282564739 2203.10405631501 L 3042.38282564739 2179.00405631501 L 2594.68282564739 2179.50405631501 L 2594.68282564739 2632.60405631501 L 2616.58282564739 2633.20405631501 Z M 2733.48282564739 2534.40405631501 L 2732.78282564739 2535.20405631501 C 2701.28282564739 2569.90405631501 2663.48282564739 2581.70405631501 2640.08282564739 2585.80405631501 L 2640.08282564739 2332.70405631501 C 2644.78282564739 2338.40405631501 2649.68282564739 2343.90405631501 2654.98282564739 2349.10405631501 C 2691.98282564739 2386.10405631501 2738.68282564739 2407.60405631501 2786.88282564739 2413.60405631501 C 2784.68282564739 2458.80405631501 2765.78282564739 2502.10405631501 2733.48282564739 2534.40405631501 Z M 2728.98282564739 2276.80405631501 C 2753.98282564739 2301.80405631501 2771.48282564739 2332.80405631501 2780.08282564739 2366.60405631501 C 2745.98282564739 2359.90405631501 2713.38282564739 2343.40405631501 2686.98282564739 2317.00405631501 C 2647.68282564739 2274.90405631501 2639.98282564739 2225.90405631501 2639.98282564739 2225.90405631501 C 2673.58282564739 2234.50405631501 2704.28282564739 2252.10405631501 2728.98282564739 2276.80405631501 Z M 2942.98282564739 2317.00405631501 C 2910.78282564739 2349.20405631501 2869.48282564739 2366.60405631501 2827.28282564739 2369.50405631501 C 2818.28282564739 2322.50405631501 2795.38282564739 2279.00405631501 2761.08282564739 2244.70405631501 C 2753.88282564739 2237.50405631501 2746.28282564739 2230.90405631501 2738.38282564739 2224.70405631501 L 2992.58282564739 2224.40405631501 C 2985.48282564739 2259.30405631501 2968.38282564739 2291.50405631501 2942.98282564739 2317.00405631501 Z"/><path fill="#0f3877" transform="matrix(0.19420646878136885 0 0 0.19420646878136885 4.116537984027475 4.012888703436351)" d="M 2917.88282564739 2431.30405631501 C 2897.88282564739 2431.30405631501 2879.08282564739 2439.10405631501 2864.88282564739 2453.20405631501 C 2850.68282564739 2467.30405631501 2842.98282564739 2486.20405631501 2842.98282564739 2506.20405631501 C 2842.98282564739 2526.20405631501 2850.78282564739 2545.00405631501 2864.88282564739 2559.20405631501 L 2864.88282564739 2559.20405631501 C 2879.08282564739 2573.40405631501 2897.88282564739 2581.10405631501 2917.88282564739 2581.10405631501 C 2937.88282564739 2581.10405631501 2956.68282564739 2573.30405631501 2970.88282564739 2559.20405631501 C 2985.08282564739 2545.00405631501 2992.88282564739 2526.20405631501 2992.88282564739 2506.20405631501 C 2992.88282564739 2486.20405631501 2985.08282564739 2467.40405631501 2970.98282564739 2453.20405631501 C 2956.78282564739 2439.10405631501 2937.88282564739 2431.30405631501 2917.88282564739 2431.30405631501 Z M 2938.78282564739 2527.10405631501 C 2933.18282564739 2532.70405631501 2925.78282564739 2535.80405631501 2917.88282564739 2535.80405631501 C 2909.98282564739 2535.80405631501 2902.58282564739 2532.70405631501 2896.98282564739 2527.10405631501 L 2896.98282564739 2527.10405631501 C 2891.38282564739 2521.50405631501 2888.28282564739 2514.10405631501 2888.28282564739 2506.20405631501 C 2888.28282564739 2498.30405631501 2891.38282564739 2490.90405631501 2896.98282564739 2485.30405631501 C 2902.58282564739 2479.70405631501 2909.98282564739 2476.60405631501 2917.88282564739 2476.60405631501 C 2925.78282564739 2476.60405631501 2933.18282564739 2479.70405631501 2938.78282564739 2485.30405631501 C 2944.38282564739 2490.90405631501 2947.48282564739 2498.30405631501 2947.48282564739 2506.20405631501 C 2947.48282564739 2514.10405631501 2944.38282564739 2521.50405631501 2938.78282564739 2527.10405631501 Z"/><path fill="#0f3877" transform="matrix(0.19420646878136885 0 0 0.19420646878136885 4.116537984027475 4.012888703436351)" d="M 3048.38282564739 2075.00405631501 C 3048.48282564739 2071.50405631501 3050.18282564739 1988.70405631501 2981.28282564739 1925.70405631501 C 2940.78282564739 1885.40405631501 2886.48282564739 1861.80405631501 2829.78282564739 1859.50405631501 C 2825.88282564739 1807.40405631501 2803.98282564739 1756.40405631501 2764.28282564739 1716.60405631501 C 2725.18282564739 1677.50405631501 2673.38282564739 1654.10405631501 2618.28282564739 1650.70405631501 L 2594.08282564739 1649.20405631501 L 2594.58282564739 2096.90405631501 L 3047.68282564739 2096.90405631501 L 3048.38282564739 2075.00405631501 Z M 2949.58282564739 1958.10405631501 L 2950.38282564739 1958.80405631501 C 2985.08282564739 1990.30405631501 2996.88282564739 2028.10405631501 3000.98282564739 2051.50405631501 L 2747.88282564739 2051.50405631501 C 2753.58282564739 2046.80405631501 2759.08282564739 2041.90405631501 2764.28282564739 2036.60405631501 C 2801.28282564739 1999.60405631501 2822.78282564739 1952.90405631501 2828.78282564739 1904.70405631501 C 2873.98282564739 1906.90405631501 2917.28282564739 1925.80405631501 2949.58282564739 1958.10405631501 Z M 2691.98282564739 1962.60405631501 C 2716.98282564739 1937.60405631501 2747.98282564739 1920.10405631501 2781.78282564739 1911.50405631501 C 2775.08282564739 1945.60405631501 2758.58282564739 1978.20405631501 2732.18282564739 2004.60405631501 C 2690.08282564739 2043.90405631501 2641.08282564739 2051.60405631501 2641.08282564739 2051.60405631501 C 2649.68282564739 2018.00405631501 2667.28282564739 1987.30405631501 2691.98282564739 1962.60405631501 Z M 2732.18282564739 1748.60405631501 C 2764.38282564739 1780.80405631501 2781.78282564739 1822.10405631501 2784.68282564739 1864.30405631501 C 2737.68282564739 1873.30405631501 2694.18282564739 1896.20405631501 2659.88282564739 1930.50405631501 C 2652.68282564739 1937.70405631501 2646.08282564739 1945.30405631501 2639.88282564739 1953.20405631501 L 2639.58282564739 1699.00405631501 C 2674.48282564739 1706.10405631501 2706.68282564739 1723.20405631501 2732.18282564739 1748.60405631501 Z"/><path fill="#0f3877" transform="matrix(0.19420646878136885 0 0 0.19420646878136885 4.116537984027475 4.012888703436351)" d="M 2846.48282564739 1773.70405631501 C 2846.48282564739 1793.70405631501 2854.28282564739 1812.50405631501 2868.38282564739 1826.70405631501 C 2882.58282564739 1840.90405631501 2901.38282564739 1848.60405631501 2921.38282564739 1848.60405631501 C 2941.38282564739 1848.60405631501 2960.18282564739 1840.80405631501 2974.38282564739 1826.70405631501 L 2974.38282564739 1826.70405631501 C 2988.58282564739 1812.50405631501 2996.28282564739 1793.70405631501 2996.28282564739 1773.70405631501 C 2996.28282564739 1753.70405631501 2988.48282564739 1734.90405631501 2974.38282564739 1720.70405631501 C 2960.18282564739 1706.50405631501 2941.38282564739 1698.70405631501 2921.38282564739 1698.70405631501 C 2901.38282564739 1698.70405631501 2882.58282564739 1706.50405631501 2868.38282564739 1720.60405631501 C 2854.28282564739 1734.80405631501 2846.48282564739 1753.70405631501 2846.48282564739 1773.70405631501 Z M 2942.28282564739 1752.80405631501 C 2947.88282564739 1758.40405631501 2950.98282564739 1765.80405631501 2950.98282564739 1773.70405631501 C 2950.98282564739 1781.60405631501 2947.88282564739 1789.00405631501 2942.28282564739 1794.60405631501 L 2942.28282564739 1794.60405631501 C 2936.68282564739 1800.20405631501 2929.28282564739 1803.30405631501 2921.38282564739 1803.30405631501 C 2913.48282564739 1803.30405631501 2906.08282564739 1800.20405631501 2900.48282564739 1794.60405631501 C 2894.88282564739 1789.00405631501 2891.78282564739 1781.60405631501 2891.78282564739 1773.70405631501 C 2891.78282564739 1765.80405631501 2894.88282564739 1758.40405631501 2900.48282564739 1752.80405631501 C 2906.08282564739 1747.20405631501 2913.48282564739 1744.10405631501 2921.38282564739 1744.10405631501 C 2929.28282564739 1744.10405631501 2936.68282564739 1747.20405631501 2942.28282564739 1752.80405631501 Z"/><path fill="#0f3877" transform="matrix(0.19420646878136885 0 0 0.19420646878136885 4.116537984027475 4.012888703436351)" d="M 2058.38282564739 2201.40405631501 C 2058.28282564739 2204.90405631501 2056.58282564739 2287.70405631501 2125.48282564739 2350.70405631501 C 2165.98282564739 2391.00405631501 2220.28282564739 2414.60405631501 2276.98282564739 2416.90405631501 C 2280.88282564739 2469.00405631501 2302.78282564739 2520.00405631501 2342.48282564739 2559.80405631501 C 2381.58282564739 2598.90405631501 2433.38282564739 2622.30405631501 2488.48282564739 2625.70405631501 L 2512.58282564739 2627.20405631501 L 2512.08282564739 2179.50405631501 L 2059.08282564739 2179.50405631501 L 2058.38282564739 2201.40405631501 Z M 2157.18282564739 2318.30405631501 L 2156.38282564739 2317.60405631501 C 2121.68282564739 2286.10405631501 2109.88282564739 2248.30405631501 2105.78282564739 2224.90405631501 L 2358.88282564739 2224.90405631501 C 2353.18282564739 2229.60405631501 2347.68282564739 2234.50405631501 2342.48282564739 2239.80405631501 C 2305.48282564739 2276.80405631501 2283.98282564739 2323.50405631501 2277.98282564739 2371.70405631501 C 2232.78282564739 2369.50405631501 2189.48282564739 2350.60405631501 2157.18282564739 2318.30405631501 Z M 2414.78282564739 2313.80405631501 C 2389.78282564739 2338.80405631501 2358.78282564739 2356.30405631501 2324.98282564739 2364.90405631501 C 2331.68282564739 2330.80405631501 2348.18282564739 2298.20405631501 2374.58282564739 2271.80405631501 C 2416.68282564739 2232.50405631501 2465.68282564739 2224.80405631501 2465.68282564739 2224.80405631501 C 2457.08282564739 2258.40405631501 2439.48282564739 2289.10405631501 2414.78282564739 2313.80405631501 Z M 2374.58282564739 2527.80405631501 C 2342.38282564739 2495.60405631501 2324.98282564739 2454.30405631501 2322.08282564739 2412.10405631501 C 2369.08282564739 2403.10405631501 2412.58282564739 2380.20405631501 2446.88282564739 2345.90405631501 C 2454.08282564739 2338.70405631501 2460.68282564739 2331.10405631501 2466.88282564739 2323.20405631501 L 2467.18282564739 2577.40405631501 C 2432.28282564739 2570.30405631501 2400.08282564739 2553.20405631501 2374.58282564739 2527.80405631501 Z"/><path fill="#0f3877" transform="matrix(0.19420646878136885 0 0 0.19420646878136885 4.116537984027475 4.012888703436351)" d="M 2260.28282564739 2502.70405631501 C 2260.28282564739 2482.70405631501 2252.48282564739 2463.90405631501 2238.38282564739 2449.70405631501 C 2224.18282564739 2435.50405631501 2205.38282564739 2427.80405631501 2185.38282564739 2427.80405631501 C 2165.38282564739 2427.80405631501 2146.58282564739 2435.60405631501 2132.38282564739 2449.70405631501 L 2132.38282564739 2449.70405631501 C 2118.18282564739 2463.90405631501 2110.48282564739 2482.70405631501 2110.48282564739 2502.70405631501 C 2110.48282564739 2522.70405631501 2118.28282564739 2541.50405631501 2132.38282564739 2555.70405631501 C 2146.58282564739 2569.90405631501 2165.38282564739 2577.70405631501 2185.38282564739 2577.70405631501 C 2205.38282564739 2577.70405631501 2224.18282564739 2569.90405631501 2238.38282564739 2555.80405631501 C 2252.48282564739 2541.60405631501 2260.28282564739 2522.70405631501 2260.28282564739 2502.70405631501 Z M 2164.48282564739 2523.60405631501 C 2158.88282564739 2518.00405631501 2155.78282564739 2510.60405631501 2155.78282564739 2502.70405631501 C 2155.78282564739 2494.80405631501 2158.88282564739 2487.40405631501 2164.48282564739 2481.80405631501 L 2164.48282564739 2481.80405631501 C 2170.08282564739 2476.20405631501 2177.48282564739 2473.10405631501 2185.38282564739 2473.10405631501 C 2193.28282564739 2473.10405631501 2200.68282564739 2476.20405631501 2206.28282564739 2481.80405631501 C 2211.88282564739 2487.40405631501 2214.98282564739 2494.80405631501 2214.98282564739 2502.70405631501 C 2214.98282564739 2510.60405631501 2211.88282564739 2518.00405631501 2206.28282564739 2523.60405631501 C 2200.68282564739 2529.20405631501 2193.28282564739 2532.30405631501 2185.38282564739 2532.30405631501 C 2177.48282564739 2532.30405631501 2170.08282564739 2529.20405631501 2164.48282564739 2523.60405631501 Z"/><path id="text" fill="#192559" transform="matrix(1.0208129170749918 0 0 1.0208129170749918 -8.133837323253534 339.7086845762244)" d="M 179.38971428571 285.26320448988 L 170.36571428571 294.67120448988 L 170.36571428571 311.66320448988 L 154.90971428571 311.66320448988 L 154.90971428571 244.46320448988 L 170.36571428571 244.46320448988 L 170.36571428571 275.85520448988 L 200.12571428571 244.46320448988 L 217.40571428571 244.46320448988 L 189.56571428571 274.41520448988 L 219.03771428571 311.66320448988 L 200.89371428571 311.66320448988 L 179.38971428571 285.26320448988 Z M 223.93371428571 260.01520448988 L 238.90971428571 260.01520448988 L 238.90971428571 311.66320448988 L 223.93371428571 311.66320448988 L 223.93371428571 260.01520448988 Z M 224.70171428571 250.41520448988 C 222.97371428571 248.81520448988 222.10971428571 246.83120448988 222.10971428571 244.46320448988 C 222.10971428571 242.09520448988 222.97371428571 240.11120448988 224.70171428571 238.51120448988 C 226.42971428571 236.91120448988 228.66971428571 236.11120448988 231.42171428571 236.11120448988 C 234.17371428571 236.11120448988 236.41371428571 236.87920448988 238.14171428571 238.41520448988 C 239.86971428571 239.95120448988 240.73371428571 241.87120448988 240.73371428571 244.17520448988 C 240.73371428571 246.67120448988 239.86971428571 248.73520448988 238.14171428571 250.36720448988 C 236.41371428571 251.99920448988 234.17371428571 252.81520448988 231.42171428571 252.81520448988 C 228.66971428571 252.81520448988 226.42971428571 252.01520448988 224.70171428571 250.41520448988 Z M 296.46171428571 262.55920448988 C 300.39771428571 264.76720448988 303.48571428571 267.87120448988 305.72571428571 271.87120448988 C 307.96571428571 275.87120448988 309.08571428571 280.52720448988 309.08571428571 285.83920448988 C 309.08571428571 291.15120448988 307.96571428571 295.80720448988 305.72571428571 299.80720448988 C 303.48571428571 303.80720448988 300.39771428571 306.91120448988 296.46171428571 309.11920448988 C 292.52571428571 311.32720448988 288.15771428571 312.43120448988 283.35771428571 312.43120448988 C 276.76571428571 312.43120448988 271.58171428571 310.35120448988 267.80571428571 306.19120448988 L 267.80571428571 330.28720448988 L 252.82971428571 330.28720448988 L 252.82971428571 260.01520448988 L 267.13371428571 260.01520448988 L 267.13371428571 265.96720448988 C 270.84571428571 261.48720448988 276.25371428571 259.24720448988 283.35771428571 259.24720448988 C 288.15771428571 259.24720448988 292.52571428571 260.35120448988 296.46171428571 262.55920448988 Z M 290.22171428571 296.25520448988 C 292.68571428571 293.66320448988 293.91771428571 290.19120448988 293.91771428571 285.83920448988 C 293.91771428571 281.48720448988 292.68571428571 278.01520448988 290.22171428571 275.42320448988 C 287.75771428571 272.83120448988 284.60571428571 271.53520448988 280.76571428571 271.53520448988 C 276.92571428571 271.53520448988 273.77371428571 272.83120448988 271.30971428571 275.42320448988 C 268.84571428571 278.01520448988 267.61371428571 281.48720448988 267.61371428571 285.83920448988 C 267.61371428571 290.19120448988 268.84571428571 293.66320448988 271.30971428571 296.25520448988 C 273.77371428571 298.84720448988 276.92571428571 300.14320448988 280.76571428571 300.14320448988 C 284.60571428571 300.14320448988 287.75771428571 298.84720448988 290.22171428571 296.25520448988 Z M 371.10171428571 260.01520448988 L 371.10171428571 311.66320448988 L 356.89371428571 311.66320448988 L 356.89371428571 305.51920448988 C 354.90971428571 307.75920448988 352.54171428571 309.47120448988 349.78971428571 310.65520448988 C 347.03771428571 311.83920448988 344.06171428571 312.43120448988 340.86171428571 312.43120448988 C 334.07771428571 312.43120448988 328.70171428571 310.47920448988 324.73371428571 306.57520448988 C 320.76571428571 302.67120448988 318.78171428571 296.87920448988 318.78171428571 289.19920448988 L 318.78171428571 260.01520448988 L 333.75771428571 260.01520448988 L 333.75771428571 286.99120448988 C 333.75771428571 295.31120448988 337.24571428571 299.47120448988 344.22171428571 299.47120448988 C 347.80571428571 299.47120448988 350.68571428571 298.30320448988 352.86171428571 295.96720448988 C 355.03771428571 293.63120448988 356.12571428571 290.15920448988 356.12571428571 285.55120448988 L 356.12571428571 260.01520448988 L 371.10171428571 260.01520448988 Z M 382.81371428571 244.46320448988 L 395.58171428571 244.46320448988 L 394.52571428571 271.72720448988 L 383.77371428571 271.72720448988 L 382.81371428571 244.46320448988 Z M 411.90171428571 310.84720448988 C 407.80571428571 309.79120448988 404.54171428571 308.46320448988 402.10971428571 306.86320448988 L 407.10171428571 296.11120448988 C 409.40571428571 297.58320448988 412.18971428571 298.78320448988 415.45371428571 299.71120448988 C 418.71771428571 300.63920448988 421.91771428571 301.10320448988 425.05371428571 301.10320448988 C 431.38971428571 301.10320448988 434.55771428571 299.53520448988 434.55771428571 296.39920448988 C 434.55771428571 294.92720448988 433.69371428571 293.87120448988 431.96571428571 293.23120448988 C 430.23771428571 292.59120448988 427.58171428571 292.04720448988 423.99771428571 291.59920448988 C 419.77371428571 290.95920448988 416.28571428571 290.22320448988 413.53371428571 289.39120448988 C 410.78171428571 288.55920448988 408.39771428571 287.08720448988 406.38171428571 284.97520448988 C 404.36571428571 282.86320448988 403.35771428571 279.85520448988 403.35771428571 275.95120448988 C 403.35771428571 272.68720448988 404.30171428571 269.79120448988 406.18971428571 267.26320448988 C 408.07771428571 264.73520448988 410.82971428571 262.76720448988 414.44571428571 261.35920448988 C 418.06171428571 259.95120448988 422.33371428571 259.24720448988 427.26171428571 259.24720448988 C 430.90971428571 259.24720448988 434.54171428571 259.64720448988 438.15771428571 260.44720448988 C 441.77371428571 261.24720448988 444.76571428571 262.35120448988 447.13371428571 263.75920448988 L 442.14171428571 274.41520448988 C 437.59771428571 271.85520448988 432.63771428571 270.57520448988 427.26171428571 270.57520448988 C 424.06171428571 270.57520448988 421.66171428571 271.02320448988 420.06171428571 271.91920448988 C 418.46171428571 272.81520448988 417.66171428571 273.96720448988 417.66171428571 275.37520448988 C 417.66171428571 276.97520448988 418.52571428571 278.09520448988 420.25371428571 278.73520448988 C 421.98171428571 279.37520448988 424.73371428571 279.98320448988 428.50971428571 280.55920448988 C 432.73371428571 281.26320448988 436.18971428571 282.01520448988 438.87771428571 282.81520448988 C 441.56571428571 283.61520448988 443.90171428571 285.07120448988 445.88571428571 287.18320448988 C 447.86971428571 289.29520448988 448.86171428571 292.23920448988 448.86171428571 296.01520448988 C 448.86171428571 299.21520448988 447.90171428571 302.06320448988 445.98171428571 304.55920448988 C 444.06171428571 307.05520448988 441.26171428571 308.99120448988 437.58171428571 310.36720448988 C 433.90171428571 311.74320448988 429.53371428571 312.43120448988 424.47771428571 312.43120448988 C 420.18971428571 312.43120448988 415.99771428571 311.90320448988 411.90171428571 310.84720448988 Z M 529.11771428571 311.66320448988 L 516.15771428571 292.94320448988 L 515.38971428571 292.94320448988 L 501.85371428571 292.94320448988 L 501.85371428571 311.66320448988 L 486.30171428571 311.66320448988 L 486.30171428571 244.46320448988 L 515.38971428571 244.46320448988 C 521.34171428571 244.46320448988 526.50971428571 245.45520448988 530.89371428571 247.43920448988 C 535.27771428571 249.42320448988 538.65371428571 252.23920448988 541.02171428571 255.88720448988 C 543.38971428571 259.53520448988 544.57371428571 263.85520448988 544.57371428571 268.84720448988 C 544.57371428571 273.83920448988 543.37371428571 278.14320448988 540.97371428571 281.75920448988 C 538.57371428571 285.37520448988 535.16571428571 288.14320448988 530.74971428571 290.06320448988 L 545.82171428571 311.66320448988 L 529.11771428571 311.66320448988 Z M 525.18171428571 260.15920448988 C 522.74971428571 258.14320448988 519.19771428571 257.13520448988 514.52571428571 257.13520448988 L 501.85371428571 257.13520448988 L 501.85371428571 280.55920448988 L 514.52571428571 280.55920448988 C 519.19771428571 280.55920448988 522.74971428571 279.53520448988 525.18171428571 277.48720448988 C 527.61371428571 275.43920448988 528.82971428571 272.55920448988 528.82971428571 268.84720448988 C 528.82971428571 265.07120448988 527.61371428571 262.17520448988 525.18171428571 260.15920448988 Z M 606.10971428571 290.06320448988 L 567.03771428571 290.06320448988 C 567.74171428571 293.26320448988 569.40571428571 295.79120448988 572.02971428571 297.64720448988 C 574.65371428571 299.50320448988 577.91771428571 300.43120448988 581.82171428571 300.43120448988 C 584.50971428571 300.43120448988 586.89371428571 300.03120448988 588.97371428571 299.23120448988 C 591.05371428571 298.43120448988 592.98971428571 297.16720448988 594.78171428571 295.43920448988 L 602.74971428571 304.07920448988 C 597.88571428571 309.64720448988 590.78171428571 312.43120448988 581.43771428571 312.43120448988 C 575.61371428571 312.43120448988 570.46171428571 311.29520448988 565.98171428571 309.02320448988 C 561.50171428571 306.75120448988 558.04571428571 303.59920448988 555.61371428571 299.56720448988 C 553.18171428571 295.53520448988 551.96571428571 290.95920448988 551.96571428571 285.83920448988 C 551.96571428571 280.78320448988 553.16571428571 276.22320448988 555.56571428571 272.15920448988 C 557.96571428571 268.09520448988 561.26171428571 264.92720448988 565.45371428571 262.65520448988 C 569.64571428571 260.38320448988 574.33371428571 259.24720448988 579.51771428571 259.24720448988 C 584.57371428571 259.24720448988 589.14971428571 260.33520448988 593.24571428571 262.51120448988 C 597.34171428571 264.68720448988 600.55771428571 267.80720448988 602.89371428571 271.87120448988 C 605.22971428571 275.93520448988 606.39771428571 280.65520448988 606.39771428571 286.03120448988 C 606.39771428571 286.22320448988 606.30171428571 287.56720448988 606.10971428571 290.06320448988 Z M 571.06971428571 273.45520448988 C 568.76571428571 275.37520448988 567.35771428571 277.99920448988 566.84571428571 281.32720448988 L 592.28571428571 281.32720448988 C 591.77371428571 278.06320448988 590.36571428571 275.45520448988 588.06171428571 273.50320448988 C 585.75771428571 271.55120448988 582.94171428571 270.57520448988 579.61371428571 270.57520448988 C 576.22171428571 270.57520448988 573.37371428571 271.53520448988 571.06971428571 273.45520448988 Z M 621.18171428571 310.84720448988 C 617.08571428571 309.79120448988 613.82171428571 308.46320448988 611.38971428571 306.86320448988 L 616.38171428571 296.11120448988 C 618.68571428571 297.58320448988 621.46971428571 298.78320448988 624.73371428571 299.71120448988 C 627.99771428571 300.63920448988 631.19771428571 301.10320448988 634.33371428571 301.10320448988 C 640.66971428571 301.10320448988 643.83771428571 299.53520448988 643.83771428571 296.39920448988 C 643.83771428571 294.92720448988 642.97371428571 293.87120448988 641.24571428571 293.23120448988 C 639.51771428571 292.59120448988 636.86171428571 292.04720448988 633.27771428571 291.59920448988 C 629.05371428571 290.95920448988 625.56571428571 290.22320448988 622.81371428571 289.39120448988 C 620.06171428571 288.55920448988 617.67771428571 287.08720448988 615.66171428571 284.97520448988 C 613.64571428571 282.86320448988 612.63771428571 279.85520448988 612.63771428571 275.95120448988 C 612.63771428571 272.68720448988 613.58171428571 269.79120448988 615.46971428571 267.26320448988 C 617.35771428571 264.73520448988 620.10971428571 262.76720448988 623.72571428571 261.35920448988 C 627.34171428571 259.95120448988 631.61371428571 259.24720448988 636.54171428571 259.24720448988 C 640.18971428571 259.24720448988 643.82171428571 259.64720448988 647.43771428571 260.44720448988 C 651.05371428571 261.24720448988 654.04571428571 262.35120448988 656.41371428571 263.75920448988 L 651.42171428571 274.41520448988 C 646.87771428571 271.85520448988 641.91771428571 270.57520448988 636.54171428571 270.57520448988 C 633.34171428571 270.57520448988 630.94171428571 271.02320448988 629.34171428571 271.91920448988 C 627.74171428571 272.81520448988 626.94171428571 273.96720448988 626.94171428571 275.37520448988 C 626.94171428571 276.97520448988 627.80571428571 278.09520448988 629.53371428571 278.73520448988 C 631.26171428571 279.37520448988 634.01371428571 279.98320448988 637.78971428571 280.55920448988 C 642.01371428571 281.26320448988 645.46971428571 282.01520448988 648.15771428571 282.81520448988 C 650.84571428571 283.61520448988 653.18171428571 285.07120448988 655.16571428571 287.18320448988 C 657.14971428571 289.29520448988 658.14171428571 292.23920448988 658.14171428571 296.01520448988 C 658.14171428571 299.21520448988 657.18171428571 302.06320448988 655.26171428571 304.55920448988 C 653.34171428571 307.05520448988 650.54171428571 308.99120448988 646.86171428571 310.36720448988 C 643.18171428571 311.74320448988 638.81371428571 312.43120448988 633.75771428571 312.43120448988 C 629.46971428571 312.43120448988 625.27771428571 311.90320448988 621.18171428571 310.84720448988 Z M 677.48571428571 309.02320448988 C 673.10171428571 306.75120448988 669.67771428571 303.59920448988 667.21371428571 299.56720448988 C 664.74971428571 295.53520448988 663.51771428571 290.95920448988 663.51771428571 285.83920448988 C 663.51771428571 280.71920448988 664.74971428571 276.14320448988 667.21371428571 272.11120448988 C 669.67771428571 268.07920448988 673.10171428571 264.92720448988 677.48571428571 262.65520448988 C 681.86971428571 260.38320448988 686.81371428571 259.24720448988 692.31771428571 259.24720448988 C 697.75771428571 259.24720448988 702.50971428571 260.38320448988 706.57371428571 262.65520448988 C 710.63771428571 264.92720448988 713.59771428571 268.17520448988 715.45371428571 272.39920448988 L 703.83771428571 278.63920448988 C 701.14971428571 273.90320448988 697.27771428571 271.53520448988 692.22171428571 271.53520448988 C 688.31771428571 271.53520448988 685.08571428571 272.81520448988 682.52571428571 275.37520448988 C 679.96571428571 277.93520448988 678.68571428571 281.42320448988 678.68571428571 285.83920448988 C 678.68571428571 290.25520448988 679.96571428571 293.74320448988 682.52571428571 296.30320448988 C 685.08571428571 298.86320448988 688.31771428571 300.14320448988 692.22171428571 300.14320448988 C 697.34171428571 300.14320448988 701.21371428571 297.77520448988 703.83771428571 293.03920448988 L 715.45371428571 299.37520448988 C 713.59771428571 303.47120448988 710.63771428571 306.67120448988 706.57371428571 308.97520448988 C 702.50971428571 311.27920448988 697.75771428571 312.43120448988 692.31771428571 312.43120448988 C 686.81371428571 312.43120448988 681.86971428571 311.29520448988 677.48571428571 309.02320448988 Z M 776.12571428571 260.01520448988 L 776.12571428571 311.66320448988 L 761.91771428571 311.66320448988 L 761.91771428571 305.51920448988 C 759.93371428571 307.75920448988 757.56571428571 309.47120448988 754.81371428571 310.65520448988 C 752.06171428571 311.83920448988 749.08571428571 312.43120448988 745.88571428571 312.43120448988 C 739.10171428571 312.43120448988 733.72571428571 310.47920448988 729.75771428571 306.57520448988 C 725.78971428571 302.67120448988 723.80571428571 296.87920448988 723.80571428571 289.19920448988 L 723.80571428571 260.01520448988 L 738.78171428571 260.01520448988 L 738.78171428571 286.99120448988 C 738.78171428571 295.31120448988 742.26971428571 299.47120448988 749.24571428571 299.47120448988 C 752.82971428571 299.47120448988 755.70971428571 298.30320448988 757.88571428571 295.96720448988 C 760.06171428571 293.63120448988 761.14971428571 290.15920448988 761.14971428571 285.55120448988 L 761.14971428571 260.01520448988 L 776.12571428571 260.01520448988 Z M 840.34971428571 290.06320448988 L 801.27771428571 290.06320448988 C 801.98171428571 293.26320448988 803.64571428571 295.79120448988 806.26971428571 297.64720448988 C 808.89371428571 299.50320448988 812.15771428571 300.43120448988 816.06171428571 300.43120448988 C 818.74971428571 300.43120448988 821.13371428571 300.03120448988 823.21371428571 299.23120448988 C 825.29371428571 298.43120448988 827.22971428571 297.16720448988 829.02171428571 295.43920448988 L 836.98971428571 304.07920448988 C 832.12571428571 309.64720448988 825.02171428571 312.43120448988 815.67771428571 312.43120448988 C 809.85371428571 312.43120448988 804.70171428571 311.29520448988 800.22171428571 309.02320448988 C 795.74171428571 306.75120448988 792.28571428571 303.59920448988 789.85371428571 299.56720448988 C 787.42171428571 295.53520448988 786.20571428571 290.95920448988 786.20571428571 285.83920448988 C 786.20571428571 280.78320448988 787.40571428571 276.22320448988 789.80571428571 272.15920448988 C 792.20571428571 268.09520448988 795.50171428571 264.92720448988 799.69371428571 262.65520448988 C 803.88571428571 260.38320448988 808.57371428571 259.24720448988 813.75771428571 259.24720448988 C 818.81371428571 259.24720448988 823.38971428571 260.33520448988 827.48571428571 262.51120448988 C 831.58171428571 264.68720448988 834.79771428571 267.80720448988 837.13371428571 271.87120448988 C 839.46971428571 275.93520448988 840.63771428571 280.65520448988 840.63771428571 286.03120448988 C 840.63771428571 286.22320448988 840.54171428571 287.56720448988 840.34971428571 290.06320448988 Z M 805.30971428571 273.45520448988 C 803.00571428571 275.37520448988 801.59771428571 277.99920448988 801.08571428571 281.32720448988 L 826.52571428571 281.32720448988 C 826.01371428571 278.06320448988 824.60571428571 275.45520448988 822.30171428571 273.50320448988 C 819.99771428571 271.55120448988 817.18171428571 270.57520448988 813.85371428571 270.57520448988 C 810.46171428571 270.57520448988 807.61371428571 271.53520448988 805.30971428571 273.45520448988 Z"/></svg>